<svg xmlns="http://www.w3.org/2000/svg" viewBox="0 0 80 80" width="80" height="80">
  <g transform="scale(0.078125)">
    <path fill="#fefcf3" d="M359.76,241.78c-.85,4.17-1.38,11.27,2.57,17.57,1.31,2.09,1.77,4.59,1.34,7.02-1.01,5.64-.44,15.76,15.28,18.82,2.67.52,4.98,2.19,6.37,4.53,3.28,5.48,10.66,14.47,22.59,11.34,2.59-.68,5.33-.33,7.61,1.09,5.41,3.36,16.25,8.16,27.4,1.89,2.34-1.32,5.13-1.55,7.68-.72,6.57,2.14,19.72,4.83,31.15-2.68,1.89-1.24,4.13-1.83,6.37-1.59,5.26.56,15.05.77,19.93-4.41,1.81-1.91,4.4-2.89,7.03-2.87,5.31.05,13.29-.18,16.19-1.81,1.26-.71,2.69-1.04,4.13-1.14,5.1-.36,15.07-1.48,19.09-4.82,1.78-1.48,4.04-2.22,6.35-2.17,6.17.14,16.87-.42,22.61-5.38,2.32-2.01,5.53-2.69,8.5-1.92,5.57,1.44,13.98,2.31,19.03-3.4,1.86-2.11,4.45-3.46,7.26-3.46,4.17,0,9.98-.98,13.01-5.77,1.05-1.66,2.56-2.96,4.37-3.73,5.37-2.3,15.44-8.48,12.08-21.72-.67-2.65-.28-5.45,1.19-7.75,3.87-6.1,9.44-19.05-2.59-31.22-16.36-16.54-154.22-63.07-283.09,38.73-1.76,1.39-2.99,3.36-3.44,5.56Z"/>
    <path fill="var(--hm-stroke, #000000)" d="M431.38,317.06c-6.97,0-14.15-2.12-20.98-6.32-13.08,3.39-25.61-2.51-33.6-15.79-20.21-4.04-25.13-18.31-22.98-30.35-4.33-6.9-5.71-15.73-3.87-24.82h0c.91-4.49,3.41-8.54,7.04-11.41,70.97-56.06,142.53-66.78,190.12-65.9,54.62,1.01,95.71,17.29,106.28,27.98,12.03,12.16,13.51,28.42,3.99,43.51,3.62,14.34-3.17,27.09-17.73,33.36-4.21,6.59-11.69,10.25-21.1,10.34-.02.02-.05.05-.09.09-6.43,7.28-16.64,9.59-28.78,6.52-7.88,6.58-20.06,7.75-28.98,7.56-1.92,1.58-7.43,5.75-24.61,6.96-.08,0-.13.01-.18.02-2.86,1.55-7.68,3.06-20.86,2.95-7.41,7.57-19.17,8.13-27.84,7.23-14.82,9.71-31.12,6.61-39.62,3.86-5.06,2.8-10.57,4.19-16.23,4.19ZM410.45,290.73c3.65,0,7.25,1,10.34,2.92,4.38,2.72,10.92,5.22,17.23,1.67,4.74-2.66,10.45-3.21,15.68-1.5,5.05,1.65,14.69,3.64,22.56-1.53,3.85-2.53,8.44-3.66,12.92-3.18,7.11.75,10.89-.57,11.61-1.33,3.65-3.86,8.88-6.06,14.39-6,6.93.07,10.5-.43,11.6-.74,2.35-1.24,5.02-1.98,7.93-2.18,7.69-.54,12.31-1.87,13.48-2.6,3.59-2.95,8.21-4.51,12.89-4.41,8.39.19,13.99-1.34,15.84-2.95,4.78-4.14,11.33-5.65,17.55-4.05,4.32,1.12,7.86.98,9.03-.34,3.84-4.34,9.21-6.83,14.74-6.84,2.83,0,4.31-.69,4.58-1.11,2.14-3.39,5.21-6,8.88-7.57,8-3.42,6.86-7.91,6.32-10.06-1.35-5.33-.47-11,2.43-15.58,1.86-2.93,6.79-10.69-1.26-18.83-5.83-5.9-41.89-21.11-92.43-22.05-44.29-.82-110.95,9.19-177.24,61.5-.46,2.38-.84,6.67,1.28,10.06,2.63,4.18,3.59,9.19,2.71,14.1-.45,2.5-1,5.62,7.34,7.24,5.42,1.05,10.18,4.41,13.05,9.21,5.07,8.48,9.88,7.21,11.47,6.8,1.67-.44,3.38-.65,5.08-.65ZM526.39,281.24s0,0-.01,0c0,0,0,0,.01,0ZM526.93,280.99s0,0,0,0c0,0,0,0,0,0ZM618.66,277.6h0Z"/>
    <path fill="#fe5c3e" d="M471.1,122.44s-70.5,18.64-103.5,47c-2.96,2.55-5.95,5.05-9,7.49-11.3,9.02-37.51,34.05-11.53,55.25,12.89,10.51,32.53,13.73,51.5,13.79,26.89.09,53.23-7.29,76.56-20.65,22.03-12.61,59.51-29.28,102.75-28.56,4.46.08,8.9.7,13.35.84l43.37,1.4s34.88.85,25.52-26.37-47.64-40.83-47.64-40.83c0,0-65.85-26.37-141.39-9.36Z"/>
    <path fill="#fa826c" d="M423.2,208.26c-3,0-5.93-1.5-7.64-4.23-.71-1.11-16.11-24.69-48.22-25.6-4.97-.14-8.88-4.28-8.74-9.25.14-4.97,4.3-8.88,9.25-8.74,42.11,1.19,62.15,32.73,62.98,34.07,2.62,4.22,1.32,9.77-2.9,12.39-1.48.92-3.12,1.35-4.74,1.35Z"/>
    <path fill="#fa826c" d="M483.55,193.35c-3.26,0-6.41-1.78-8.01-4.88-.81-1.55-19.01-35.59-56.62-36.87-4.97-.17-8.86-4.33-8.69-9.3.17-4.97,4.31-8.86,9.3-8.69,48.4,1.65,71.07,44.79,72.01,46.63,2.27,4.42.52,9.85-3.9,12.11-1.31.67-2.72.99-4.1.99Z"/>
    <path fill="#fa826c" d="M547.86,172.48c-3.26,0-6.41-1.78-8-4.87-.76-1.46-18.96-35.59-56.62-36.88-4.97-.17-8.86-4.33-8.69-9.3.17-4.97,4.31-8.86,9.3-8.69,48.4,1.65,71.07,44.79,72.01,46.63,2.27,4.42.52,9.85-3.9,12.11-1.31.67-2.72.99-4.1.99Z"/>
    <path fill="#fa826c" d="M609,168.46c-3.26,0-6.41-1.78-8-4.87-.76-1.46-18.96-35.59-56.62-36.88-4.97-.17-8.86-4.33-8.69-9.3.17-4.97,4.36-8.87,9.3-8.69,48.4,1.65,71.07,44.79,72.01,46.63,2.27,4.42.52,9.85-3.9,12.11-1.31.67-2.72.99-4.1.99Z"/>
    <path fill="var(--hm-stroke, #000000)" d="M399.04,255.97c-.17,0-.33,0-.5,0-25.4-.08-44.85-5.48-57.79-16.04-12.3-10.03-14.83-20.88-14.79-28.22.1-18.8,16.59-34.75,26.4-42.59,2.65-2.11,5.42-4.42,8.72-7.26,34.34-29.53,104.49-48.3,107.46-49.09l.36-.09c76.48-17.23,142.44,7.91,147.13,9.76,3.51,1.28,43.01,16.27,53.55,46.94,4.46,12.98,1.08,21.6-2.54,26.55-9.7,13.24-30.34,13.13-32.68,13.07l-43.45-1.4c-2.33-.07-4.57-.26-6.73-.44-2.27-.19-4.42-.36-6.47-.4-40.21-.68-75.25,14.44-97.61,27.24-25.12,14.38-53.14,21.97-81.06,21.97ZM473.49,132.15c-3.77,1.02-69.26,18.99-99.37,44.87-3.49,3-6.44,5.46-9.28,7.72-11.78,9.4-18.84,19.52-18.88,27.07,0,1.61-.04,6.52,7.43,12.62,9.17,7.48,24.8,11.47,45.21,11.54,24.55.09,49.33-6.6,71.56-19.33,24-13.73,61.49-29.9,104.94-29.9.98,0,1.95,0,2.94.02,2.71.05,5.29.26,7.78.46,2.01.17,3.9.32,5.73.38l43.3,1.4c.12,0,.23,0,.35,0,5.22,0,13.35-1.66,15.72-4.91,1.44-1.99.66-5.57-.25-8.22-6.35-18.48-32.15-31.29-41.55-34.67l-.35-.13c-.62-.25-63.94-24.93-135.28-8.93Z"/>
  </g>
</svg>
