<svg xmlns="http://www.w3.org/2000/svg" viewBox="0 0 80 80" width="80" height="80">
  <g transform="scale(0.078125)">
    <path fill="#fefcf3" d="M461.19,156.04c-23.92,5.57-46.94-4.4-58.63-26.38-7.08-13.31-8.67-28.34-3.09-41.93,5.58-13.59,17.27-23.17,31.67-27.66,23.75-7.42,47.15,1.66,60.25,22.43l24.01,38.07c5.61,8.9-.12,22.88-10.37,25.26l-43.84,10.21Z"/>
    <path fill="#24c102" d="M461.19,156.04c-23.92,5.57-46.94-4.4-58.63-26.38-7.08-13.31-8.67-28.34-3.09-41.93,5.58-13.59,17.27-23.17,31.67-27.66,23.75-7.42,47.15,1.66,60.25,22.43l24.01,38.07c5.61,8.9-.12,22.88-10.37,25.26l-43.84,10.21Z"/>
    <path fill="#24c102" d="M557.54,87.75c15.69-18.89,40.06-24.86,62.65-14.42,13.69,6.33,24.04,17.34,27.8,31.54s.24,28.9-8.51,41.18c-14.44,20.27-38.57,27.17-61.56,18.54l-42.14-15.82c-9.85-3.7-13.73-18.3-7-26.4l28.75-34.63Z"/>
    <path fill="var(--hm-stroke, #000000)" d="M448.15,167.57c-22.78,0-43.19-12.09-54.42-33.21-8.81-16.57-10.06-34.48-3.51-50.43,6.55-15.95,20.02-27.81,37.93-33.41,27.85-8.7,55.99,1.76,71.69,26.64l24.01,38.07c4.36,6.91,4.94,15.96,1.56,24.21-3.38,8.25-10.16,14.28-18.12,16.13l-43.84,10.21c-5.17,1.2-10.3,1.79-15.31,1.79ZM447.62,67.49c-4.4,0-8.93.69-13.49,2.12-12.13,3.79-21.15,11.57-25.4,21.92-4.25,10.34-3.3,22.22,2.67,33.44,9.46,17.79,27.67,25.96,47.53,21.33l43.84-10.21c1.62-.38,3.25-2.04,4.15-4.25.9-2.2.92-4.54.03-5.94l-24.01-38.07c-8.3-13.16-21.15-20.34-35.32-20.34Z"/>
    <path fill="var(--hm-stroke, #000000)" d="M597.54,178.26c-7.62,0-15.42-1.4-23.14-4.3l-42.14-15.82c-7.65-2.87-13.58-9.73-15.87-18.35-2.29-8.62-.53-17.51,4.69-23.8l28.75-34.63c18.8-22.64,48.06-29.35,74.54-17.1,17.03,7.88,28.85,21.39,33.27,38.06,4.42,16.66.86,34.26-10.03,49.54-12.19,17.11-30.5,26.4-50.08,26.4ZM597.56,78.21c-12.13,0-23.66,5.48-32.33,15.93l-28.75,34.63c-1.06,1.28-1.35,3.59-.74,5.89.61,2.3,2.01,4.17,3.57,4.75l42.14,15.82c19.09,7.17,38.21,1.43,49.9-14.98,7.37-10.35,9.86-22,6.99-32.81-2.87-10.81-10.8-19.7-22.33-25.03-6.11-2.82-12.34-4.2-18.43-4.2ZM557.54,87.75h0,0Z"/>
    <path fill="var(--hm-stroke, #000000)" d="M521.23,259.46c-3.63,0-7.12-1.98-8.9-5.43-28.77-55.89-1.26-113-.08-115.41,2.44-4.95,8.44-6.99,13.39-4.55,4.95,2.44,6.99,8.43,4.55,13.38-.38.79-24.09,50.79-.08,97.42,2.53,4.91.6,10.94-4.32,13.47-1.46.75-3.03,1.11-4.57,1.11Z"/>
  </g>
</svg>
