<svg width="80" height="80" viewBox="0 0 80 80" xmlns="http://www.w3.org/2000/svg"><g transform="scale(0.078125)"><g> <path fill="#bfbfbf" d="M424.16,276.52s-8.58,20.18,43.28,35.25c51.86,15.08,79.68,11.19,79.68,11.19,0,0,18.88.17,22.51-15.3"/> <path fill="var(--hm-stroke, #000000)" d="M535.5,336.4c-12.29,0-35.77-1.82-70.86-12.02-25.04-7.28-41.11-17.67-47.76-30.89-5.3-10.53-2.68-18.87-2.1-20.44l18.75,6.95s.09-.17.16-.5c-.07.3-.6,3.01,2.31,7.08,3.57,4.99,12.41,12.26,34.21,18.6,48.42,14.08,72.17,10.94,72.4,10.9l.18-.03h.02c3.87-.54,15.42-3.67,17.06-10.66l19.47,4.57c-4.11,17.49-23.2,24.52-33.9,25.92-.87.12-4.17.53-9.96.53Z"/> <path fill="#fac639" d="M461.69,87.61s-12.53.26-17.7,25.23c-5.17,24.97-27.57,133.19-27.57,133.19,0,0-9.12,20.78,18.59,31.34,27.72,10.56,67.23,29.35,128.11,26.52,0,0,22.22,2.19,26.08-21.13l24.83-119.78s8.97-22.29-7.68-46.93"/> <polygon fill="#FFFFFF" points="455.29 89.26 442.24 132.54 458.77 135.96 462.54 155.4 477.38 158.48 492.33 145.64 516.8 145.69 529.4 157.86 550.75 153.38 573 164.12 589.48 162.34 607.95 166.92 610.68 153.75 609.12 133.4 604.32 117.49 564.6 124.18 533.82 114.62 513.95 115.97 471.92 99.08 455.29 89.26"/> <path fill="var(--hm-stroke, #000000)" d="M550.73,314.19c-49.61,0-84.28-13.69-110.15-23.9-3.18-1.26-6.23-2.46-9.13-3.57-12.13-4.62-20.23-11.65-24.1-20.88-4.22-10.09-1.75-19.28-.56-22.61l27.41-132.42c6.6-31.86,25.19-33.16,27.29-33.2l.41,20c.65-.01.93-.08.94-.08-1.6.42-6.35,4.34-9.05,17.34l-27.83,134.42-.35.7c-.24.67-1.45,4.44.27,8.32,2.15,4.86,8.09,7.97,12.69,9.72,2.98,1.14,6.1,2.36,9.36,3.65,26.36,10.4,62.45,24.66,114.73,22.22l.85-.04.54.07c.51.03,4.02.14,7.5-1.37,2.73-1.19,6.5-3.66,7.79-11.43l.07-.4,25.03-120.75.31-.73c.24-.64,6.58-17.97-6.69-37.59l16.57-11.2c17.52,25.92,10.84,49.98,9.04,55.24l-24.65,118.91c-2.2,12.9-9.53,22.4-20.67,26.77-6.74,2.64-13,2.64-15.33,2.53-4.19.19-8.29.28-12.29.28Z"/> <path fill="var(--hm-stroke, #000000)" d="M599.63,179.2c-1.53,0-3.09-.16-4.66-.51-3.45-.77-7.86-2.71-11.57-7.38-6.06,2.54-14.31,4.56-22.75,2.25-4.33-1.18-10.1-3.94-15.21-10.27-6.15,2.72-12.48,3.51-18.27,2.23-5.89-1.3-11.04-4.55-15.36-9.68-4.84,1.78-9.81,2.15-14.52,1.09-7.27,11.19-18.69,16.22-31.47,13.57-8.59-1.78-13.05-6.58-15.29-10.29-2.76-4.58-3.82-10.31-3.19-16.85-8.62-1.21-13.73-6.94-15.78-12.94l18.88-6.46c-.16-.19-.42-.39-.6-.45.24.08,1.26.21,3.11-.15,4.58-.9,9.2.62,12.36,4.08,3.17,3.47,4.29,8.24,2.97,12.76-1.67,5.72-1.13,8.85-.62,9.71.33.55,1.52.87,2.2,1.01,2.16.45,7.89,1.63,12.21-7.75,1.53-3.33,4.4-5.91,7.87-7.07,3.47-1.17,7.32-.84,10.56.89.65.35,2.64,1.41,6.43-.92,6.25-3.85,14.48-1.89,18.35,4.37,1.99,3.22,4.08,5.09,6.19,5.56,3.26.73,7.23-1.57,8.78-2.6,3.08-2.02,6.9-2.67,10.48-1.8,3.57.87,6.65,3.21,8.44,6.41,2.92,5.22,5.79,6,6.73,6.26,4.81,1.31,10.91-1.79,13.31-3.18,3.25-1.89,7.17-2.31,10.75-1.16,3.61,1.16,6.57,3.82,8.13,7.3.72,1.6,1.27,1.97,1.28,1.97,1.16.33,5.27-1.41,8.17-3.83l12.96,15.23c-1.86,1.59-10.65,8.61-20.89,8.61ZM450.55,124.11h0Z"/> <path fill="#bfbfbf" d="M508.16,115.03s73.41,20.5,98.18,1.03-66.32-40.74-66.32-40.74c0,0-43.63-5.53-53.04-4.71-14.74,1.29-41.08,7.41-15.47,28.15,0,0,25.66,13.56,36.66,16.27Z"/> <path fill="var(--hm-stroke, #000000)" d="M571.15,134.45c-7.4,0-15.55-.56-24.43-1.67-21.16-2.66-39.16-7.53-41.1-8.07-11.92-2.99-36.07-15.66-38.79-17.1l-.86-.46-.76-.61c-5.42-4.39-9.19-8.52-11.54-12.64-3.66-6.43-3.2-11.82-2.17-15.2,3.9-12.75,20.97-16.85,34.6-18.04,2.96-.26,9.55-.32,32.45,2.11,21.69,2.31,42.68,7.14,62.39,14.35,25.56,9.35,37.73,18.4,39.47,29.33.59,3.75.36,11-7.88,17.48-8.91,7-22.77,10.52-41.37,10.52ZM510.85,105.4c26.13,7.28,72.83,14.47,88.63,3.3-2.41-2.21-8.9-6.75-25.43-12.8-18.17-6.65-37.56-11.11-57.63-13.25-21.91-2.33-27.42-2.18-28.59-2.08-8.86.78-14.22,2.64-16.48,3.92.75,1.14,2.35,3.09,5.7,5.89,9.68,5.07,26.57,13.23,33.49,14.94l.3.08Z"/> <path fill="var(--hm-stroke, #000000)" d="M504.57,84.91c10.81-.27,23.66,2.63,32.87,7.59,5.58,3,4.4,5.26,3.83,7.85s-.42,5.04-6.74,5.44c-10.44.66-23.32-2.08-33.03-6.84l-9.56-4.69c-9.65-4.73-8.76-8.82,1.99-9.09l10.64-.26Z"/> </g></g></svg>
