<svg xmlns="http://www.w3.org/2000/svg" viewBox="0 0 80 80" width="80" height="80">
  <g transform="scale(0.078125)">
    <g>
    <path fill="#fdfbf2" d="M358.44,242.45c-.86,4.21-1.4,11.39,2.6,17.75,1.33,2.11,1.79,4.64,1.35,7.09-1.02,5.7-.45,15.92,15.44,19.01,2.7.53,5.03,2.21,6.44,4.58,3.31,5.54,10.77,14.62,22.82,11.46,2.62-.69,5.39-.33,7.69,1.1,5.47,3.4,16.42,8.24,27.68,1.91,2.37-1.33,5.18-1.56,7.76-.72,6.63,2.17,19.92,4.88,31.48-2.71,1.91-1.25,4.17-1.85,6.44-1.61,5.32.57,15.2.78,20.14-4.45,1.83-1.93,4.44-2.92,7.1-2.9,5.37.05,13.43-.18,16.36-1.83,1.27-.71,2.72-1.05,4.17-1.15,5.16-.36,15.23-1.49,19.29-4.87,1.8-1.49,4.08-2.24,6.42-2.19,6.23.14,17.05-.42,22.84-5.44,2.34-2.03,5.59-2.72,8.59-1.94,5.62,1.45,14.13,2.33,19.22-3.43,1.88-2.13,4.49-3.5,7.34-3.5,4.21,0,10.09-.99,13.15-5.83,1.06-1.67,2.59-2.99,4.41-3.77,5.43-2.32,15.6-8.57,12.2-21.95-.68-2.68-.28-5.5,1.2-7.83,3.91-6.16,9.54-19.25-2.62-31.54-16.53-16.71-155.82-63.72-286.03,39.14-1.78,1.4-3.03,3.39-3.48,5.61Z"/>
    <path fill="var(--hm-stroke, #000000)" d="M353.62,241.12c-1.29,6.95-.88,13.7,2.26,20.12,1.48,3.03,1.5,4.68,1.26,7.95-.14,2.02-.01,4.1.43,6.08,1.04,4.7,3.87,8.67,7.8,11.41,2.42,1.69,5.23,2.87,8.06,3.71,1.66.49,3.56.56,5.02,1.52,1.37.9,2.09,2.5,3.01,3.81,3.27,4.62,7.44,8.61,12.78,10.71,2.88,1.13,5.99,1.7,9.09,1.51,1.73-.1,3.39-.59,5.09-.78,2.31-.26,3.68.58,5.63,1.64,5.86,3.2,12.59,5.11,19.3,4.48,4.36-.41,7.63-2.18,11.63-3.62,3.15-1.13,6.55.67,9.7,1.28,6.8,1.31,13.97,1.43,20.65-.6,3.7-1.13,7.14-4.12,10.78-4.97,2.91-.68,6.58.33,9.6.14,3.32-.21,6.62-.73,9.71-1.98s5.86-4.73,9.06-5.44,6.76-.14,9.99-.42,6.05-.79,9.03-1.87c5.82-2.12,12.44-1.49,18.41-3.53,2.8-.96,4.96-2.9,7.61-3.93,2.92-1.14,7.06-.4,10.19-.72s6.52-.82,9.63-1.86c3.39-1.13,5.78-3.43,8.88-4.86,2.88-1.32,6.45.21,9.48.53,3.21.33,6.56.23,9.68-.68s5.61-2.47,7.92-4.61c2.96-2.74,5.28-2.33,9.03-2.95,3.13-.52,6.14-1.62,8.69-3.54,2.77-2.08,4.15-5.03,7.31-6.61,10.42-5.21,15.9-14.03,14.19-25.8-.58-3.96.75-5.73,2.37-9.12,1.22-2.56,2.26-5.24,2.81-8.02,1.29-6.45.4-12.97-2.77-18.76-3.18-5.81-7.98-9.84-13.64-12.99-12.54-6.98-26.84-11.2-40.76-14.37-21.24-4.84-43.17-6.94-64.94-6.57-60.66,1.04-119.55,21.93-168.42,57.66-5.99,4.38-13.44,8.47-15.56,16.04-1.74,6.21,7.91,8.86,9.64,2.66,1.01-3.6,5.1-5.7,7.95-7.83,3.47-2.6,6.98-5.12,10.55-7.58,6.62-4.56,13.42-8.86,20.38-12.89,13.05-7.56,26.67-14.17,40.75-19.57,24.52-9.4,50.36-15.44,76.54-17.59,36.38-2.99,75.45.23,109.51,14.24,4.28,1.76,8.54,3.77,12.42,6.3,2,1.3,1.33.68,2.95,2.28,4.72,4.68,7.06,10.93,5.49,17.47-1.24,5.15-5.18,9.23-5.65,14.56-.52,5.89,2.56,11.11-1.78,16.28-2.79,3.33-6.89,4.29-10.23,6.8-2.56,1.93-3.84,5.14-6.87,6.44-2.69,1.15-5.61.65-8.41,1.21-6.13,1.24-8.93,7.39-15.32,7.71s-11.71-2.9-17.7.32c-2.75,1.48-4.78,3.44-7.84,4.41s-6.41,1.38-9.67,1.54c-2.7.13-5.47-.16-8.13.42-3.1.67-5.08,2.6-7.84,3.9-5.44,2.56-11.54,1.9-17.24,3.15-2.56.56-4.68,1.84-7.31,2.19-3.25.44-6.53.33-9.8.42s-6.32.69-9.08,2.53-4.43,3.84-7.94,4.59c-5.88,1.25-12.12-1-17.73,1.45-3.49,1.52-6.38,3.65-10.14,4.59-3.44.86-7.04.97-10.56.65-5.77-.54-11.36-3.68-17.19-2.11-3.76,1.01-6.82,3.34-10.82,3.71-3.45.32-6.96-.4-10.18-1.65-2.49-.97-4.64-2.57-7.1-3.58-3.54-1.46-6.66-1.03-10.28-.45-6.01.96-10.77-1.72-14.43-6.39s-5.92-8.42-12.19-9.99c-4.42-1.1-9.39-2.73-10.87-7.55-1.21-3.92.56-7.48-.32-11.47-.74-3.37-3.01-6.07-3.84-9.42-.73-2.96-.63-6.11-.08-9.1,1.17-6.29-8.47-8.99-9.64-2.66Z"/>
  </g>
  <path fill="var(--hm-stroke, #000000)" d="M430.81,318.41c-7.03,0-14.29-2.14-21.18-6.39-13.22,3.43-25.86-2.53-33.91-15.93-20.39-4.05-25.35-18.42-23.18-30.55-4.38-7.02-5.77-15.92-3.91-25.08h0c.92-4.51,3.43-8.59,7.08-11.47,71.68-56.62,144.01-67.45,192.03-66.56,55.16,1.02,96.64,17.45,107.31,28.24,12.13,12.26,13.62,28.66,3.99,43.87,0,.02,0,.04.01.07,3.66,14.4-3.19,27.25-17.88,33.57-4.23,6.65-11.78,10.35-21.29,10.43-.04.03-.08.07-.12.12-6.48,7.33-16.78,9.65-29.03,6.54-7.95,6.67-20.28,7.85-29.29,7.65-1.9,1.57-7.42,5.81-24.83,7.03-.09,0-.16.01-.21.02-2.88,1.56-7.77,3.1-21.09,2.98-7.46,7.66-19.35,8.22-28.11,7.31-14.98,9.82-31.46,6.67-40.02,3.89-5.11,2.84-10.68,4.24-16.38,4.24ZM409.66,292.02c3.67,0,7.28,1,10.4,2.93,4.45,2.76,11.09,5.29,17.51,1.69,4.76-2.68,10.51-3.23,15.76-1.51,5.12,1.67,14.9,3.69,22.88-1.56,3.87-2.54,8.48-3.68,12.99-3.2,7.22.77,11.08-.59,11.81-1.37,3.63-3.84,8.82-6.03,14.28-6.03.06,0,.12,0,.18,0,7.01.06,10.65-.44,11.76-.75,2.37-1.25,5.05-1.99,7.98-2.2,7.81-.55,12.5-1.9,13.67-2.64,3.6-2.97,8.2-4.54,12.96-4.44,8.46.19,14.19-1.37,16.07-3,4.8-4.16,11.4-5.68,17.64-4.06,4.4,1.14,8.02.99,9.23-.37,3.85-4.36,9.25-6.87,14.81-6.88,2.61,0,4.35-.59,4.72-1.18,2.15-3.4,5.24-6.03,8.93-7.61,8.17-3.49,7-8.08,6.44-10.29-1.36-5.36-.47-11.07,2.45-15.66,1.89-2.97,6.9-10.87-1.29-19.15-5.9-5.97-42.36-21.36-93.46-22.31-44.75-.83-112.16,9.29-179.17,62.19-.47,2.42-.87,6.8,1.3,10.27,2.64,4.21,3.61,9.24,2.73,14.17-.44,2.44-1.03,5.78,7.5,7.44,5.45,1.06,10.22,4.43,13.11,9.26,5.16,8.63,10.09,7.35,11.7,6.92,1.68-.44,3.4-.66,5.1-.66ZM526.86,282.42s0,0-.01,0c0,0,0,0,.01,0ZM527.38,282.17h0ZM548.82,277.42s0,0-.01.01c0,0,0,0,.01-.01ZM368.24,244.45s0,0,0,0c0,0,0,0,0,0h0ZM659.05,234.51h0Z"/>
  <path fill="#e06d1d" d="M470.9,117.44s-71.22,21.47-104.54,54.09c-2.99,2.93-6.01,5.81-9.09,8.61-11.41,10.37-11.28,26.04,14.98,50.37,13.03,12.07,6.28,28.88,25.45,28.93,27.16.08,53.77-8.42,77.34-23.79,22.25-14.51,60.11-33.7,103.8-32.89,4.51.08,8.99.79,13.49.96l43.82,1.58s35.24.95,25.77-30.33c-9.47-31.28-48.16-46.89-48.16-46.89,0,0-66.55-30.26-142.86-10.65Z"/>
  <path fill="#f6d2c3" d="M423.57,249.41c-4.52,0-8.41-3.4-8.93-7.99l-4.26-37.78c-.34-3-1.94-5.69-4.4-7.38-13.7-9.46-25.09-16.06-31.23-18.12-4.71-1.58-7.25-6.68-5.67-11.39,1.58-4.71,6.68-7.26,11.39-5.67,9.99,3.35,24.95,12.93,35.74,20.38,6.74,4.65,11.14,12.01,12.06,20.18l4.26,37.78c.56,4.94-3,9.4-7.93,9.95-.34.04-.68.06-1.02.06Z"/>
  <path fill="#f6d2c3" d="M474.22,235.52c-4.84,0-8.84-3.84-8.99-8.71l-1.63-51.32c-.04-1.28-.49-2.46-1.29-3.43-5.58-6.69-16.72-19.22-28.62-27.93-4.01-2.94-4.88-8.57-1.95-12.58,2.93-4.01,8.57-4.88,12.58-1.95,13.45,9.84,25.71,23.6,31.82,30.93,3.35,4.02,5.29,9.13,5.46,14.38l1.63,51.32c.16,4.97-3.74,9.12-8.71,9.28-.1,0-.19,0-.29,0Z"/>
  <path fill="#f6d2c3" d="M530.92,214.54c-.17,0-.34,0-.51-.01-4.96-.28-8.76-4.53-8.48-9.49l2.55-45.49c.07-1.24-.31-2.48-1.07-3.49-4.92-6.54-17.59-22.46-29.06-29.09-4.3-2.49-5.77-7.99-3.29-12.3,2.49-4.3,7.99-5.77,12.3-3.29,13.82,7.99,27.51,24.64,34.44,33.86,3.31,4.4,4.96,9.84,4.66,15.32l-2.55,45.49c-.27,4.79-4.24,8.5-8.98,8.5Z"/>
  <path fill="#f6d2c3" d="M592.75,208.99c-.76,0-1.52-.1-2.29-.3-4.81-1.26-7.68-6.18-6.42-10.99l8.38-31.91c.53-2.03.25-4.12-.79-5.91-4.3-7.35-13.21-21.46-24.6-33.4-3.43-3.6-3.3-9.29.29-12.72,3.6-3.43,9.29-3.3,12.72.3,12.66,13.26,22.43,28.71,27.12,36.74,3.47,5.94,4.41,12.88,2.66,19.56l-8.38,31.91c-1.06,4.04-4.71,6.72-8.7,6.72Z"/>
  <path fill="var(--hm-stroke, #000000)" d="M398.13,269.38c-.17,0-.34,0-.51,0-17.05-.06-23.46-15.19-27.7-25.2-2.54-6-5.16-12.2-8.45-13.48-17.63-6.86-23.02-17.38-24.43-25-2.06-11.15,2.98-23.51,13.5-33.06,2.68-2.44,5.49-5.09,8.82-8.35,34.7-33.93,105.68-55.54,108.68-56.45l.4-.11c77.56-19.87,144.45,9.08,149.3,11.26,3.62,1.5,43.3,18.65,53.75,53.22,4.54,15.04.58,24.63-3.55,30.04-10.22,13.37-29.87,13.22-32.08,13.16l-43.91-1.61c-2.39-.09-4.66-.3-6.86-.51-2.27-.21-4.42-.41-6.46-.45-40.35-.77-75.65,16.54-98.17,31.2-25.48,16.59-53.94,25.35-82.33,25.35ZM473.63,127.04c-3.98,1.22-69.9,21.84-100.28,51.54-3.52,3.44-6.49,6.26-9.36,8.86-5.03,4.57-8.03,10.58-7.28,14.61.92,4.99,7.92,8.41,12.01,10,11.16,4.34,15.85,15.42,19.62,24.32,4.12,9.74,6.05,12.99,9.35,13,24.67.08,49.5-7.55,71.86-22.11,24.87-16.19,64.01-35.29,109.46-34.44,2.78.05,5.4.3,7.94.54,2.01.19,3.91.37,5.73.43l43.73,1.6c3.81.04,12.5-1.17,15.66-5.34,1.86-2.46,1.96-6.53.28-12.08-7.92-26.22-41.98-40.42-42.33-40.56l-.38-.16c-.62-.28-64.31-28.51-136.01-10.22ZM473.82,126.99h0Z"/>
  <path fill="#da3b29" d="M666.08,177.63s77.62,31.21,75.53,78.84c-.65,14.86-16.22,24.22-29.92,18.43-22.01-9.3-51.69-33.67-45.61-97.27Z"/>
  <path fill="#da3b29" d="M663.85,157.26c16.84-5.25,50.13-13.37,75.92-5.42,28.27,8.72,24,49.52-5.44,52.48-20.3,2.04-46.57-4.18-73.88-34.58-3.74-4.16-1.93-10.82,3.41-12.49Z"/>
  <path fill="var(--hm-stroke, #000000)" d="M708.5,286.82c-2.2,0-4.08-.52-5.83-1.54-20.02-11.64-52.36-47.62-46.54-108.6l1.49-15.61,13.52,7.93c.83.48,20.45,12.05,40.04,27.91,28.66,23.19,41.87,42.88,40.4,60.17-.23,2.67-.92,10.81-26.29,24.02-7.48,3.89-12.69,5.73-16.8,5.73ZM707.91,266.87h0ZM675.5,195.48c1.52,43.56,26.19,64.78,34.54,70.73,5.89-2.24,17.48-9.15,21.59-12.92-.61-5.9-5.82-18.79-32.86-40.71-8.2-6.65-16.53-12.57-23.27-17.1ZM732.71,252.16h0Z"/>
  <path fill="var(--hm-stroke, #000000)" d="M741.48,214.71c-1.57,0-3.17-.18-4.78-.56-2.7-.63-5.58-1.2-8.64-1.81-20.85-4.13-49.4-9.79-77.28-45.18l-8.83-11.21,13.56-4.47c2.09-.69,51.6-16.78,90.46-9.82,8.3,1.49,14.73,7.77,18.12,17.7,6.17,18.08,1.13,39.08-7.09,48.17-4.24,4.69-9.72,7.18-15.53,7.18ZM676.78,166.35c19.6,19.33,38.34,23.04,55.18,26.38,3.22.64,6.27,1.24,9.28,1.94.21.05.3.05.3.04,2.05-.87,6.27-10.58,4.97-22.57-.84-7.7-3.44-10.69-4.06-10.8-21.92-3.93-49.12,1-65.67,5Z"/>
  </g>
</svg>
