<svg id="_レイヤー_1" xmlns="http://www.w3.org/2000/svg" version="1.1" viewBox="0 0 80 80">
  <!-- Generator: Adobe Illustrator 30.5.1, SVG Export Plug-In . SVG Version: 2.1.4 Build 3)  -->
  <defs>
    <style>
      .st0 {
        fill: #69009a;
      }

      .st1 {
        stroke: #FFFFFF;
      }

      .st1, .st2 {
        fill: none;
        stroke-linecap: round;
        stroke-linejoin: round;
        stroke-width: 1.47px;
      }

      .st3 {
        fill: #FFFFFF;
      }

      .st2 {
        stroke: var(--hm-stroke, #000000);
      }

      .st4 {
        fill: #00b710;
      }
    </style>
  </defs>
  <path class="st0" d="M43.65,14.63s-2.21,3.82-8.33,2.98c-3.81-.52-5.39,1.72-5.89,3.54-.54,1.95.28,4.13,1.85,5.41,1.33,1.08,3.57,2.07,7.22,1.05,1.88-.53,3.58-1.44,5.17-2.57,2.03-1.44,4.54-3.73,4.75-6.25"/>
  <path class="st2" d="M43.65,14.63s-2.21,3.82-8.33,2.98c-3.81-.52-5.39,1.72-5.89,3.54-.54,1.95.28,4.13,1.85,5.41,1.33,1.08,3.57,2.07,7.22,1.05,1.88-.53,3.58-1.44,5.17-2.57,2.03-1.44,4.54-3.73,4.75-6.25"/>
  <path class="st4" d="M49.35,12.6s2.08.62,1.16,3.39c-.92,2.77-.02,3.49-.02,3.49,0,0-2.95.32-2.72-2.99,0,0-1.66,1.49-3.82.72,0,0,1.37-.33,1.28-2.26,0,0-2.26.21-3.29-2.17,0,0,2.61.59,3.6-.77s2.93-1.03,3.81.59Z"/>
  <path class="st2" d="M49.35,12.6s2.08.62,1.16,3.39c-.92,2.77-.02,3.49-.02,3.49,0,0-2.95.32-2.72-2.99,0,0-1.66,1.49-3.82.72,0,0,1.37-.33,1.28-2.26,0,0-2.26.21-3.29-2.17,0,0,2.61.59,3.6-.77s2.93-1.03,3.81.59Z"/>
  <line class="st2" x1="50.12" y1="11.66" x2="49.35" y2="12.6"/>
  <path class="st1" d="M31.8,22.84s-.61-2.1,1.56-3"/>
  <circle class="st3" cx="35.48" cy="19.73" r=".7"/>
</svg>
