<svg width="80" height="80" viewBox="0 0 80 80" xmlns="http://www.w3.org/2000/svg"><g transform="scale(0.078125)"><polygon fill="#fffffd" points="514.81 86.88 473.05 111.63 423.55 111.04 378.18 86.88 374.65 126.36 369.31 149.51 361.17 178.4 358.21 213.59 352.41 250.25 358.21 259.02 373.31 300.87 400.16 318.83 422.08 309.56 439.62 323.75 462.66 322.06 494.48 323.58 532.87 318.86 589.37 316.57 605.7 304.29 610.39 313.55 640.6 293.65 651 299.9 668.41 275.08 691.68 273.48 706.19 264.41 727.9 259.02 750.09 221.82 756.31 185.92 745.9 177.62 749.03 149.51 733.93 123.8 721.9 123.8 715.32 139.67 714.02 167.22 713.3 197.29 706.19 219.52 698.96 219.52 678.04 238.29 660.9 211.34 674.75 208.59 656.04 178.96 636.85 164.19 643.61 153.43 587.15 128.86 532.57 123.41 526.97 89.86 514.81 86.88"/>
  <path fill="#6e6e6e" d="M439.62,114.98s-16.03,82.37-80.74,69.6l2.3-22.47,13.47-35.75,3.54-39.48,61.44,28.09Z"/>
  <path fill="#e79b00" d="M452.49,112.79s37.79,59.27,83.97,68.61l-9.5-31.89,9.5,4.16-3.9-30.25-10.02-37.11-43.58,20.77-26.47,5.72Z"/>
  <g>
    <path fill="#e79b00" d="M584.3,195.22c-1.56,0-3.14-.43-4.55-1.33-22.62-14.37-22.88-37.13-22.88-38.09,0-4.69,3.81-8.5,8.5-8.5s8.46,3.77,8.5,8.43c.02.75.56,14.64,15,23.81,3.96,2.52,5.14,7.77,2.62,11.73-1.62,2.55-4.37,3.94-7.18,3.94ZM573.86,155.81h0,0Z"/>
    <path fill="#e79b00" d="M603.24,226.5c-1.56,0-3.14-.43-4.55-1.33-22.62-14.37-22.88-37.13-22.88-38.09,0-4.69,3.81-8.5,8.5-8.5s8.46,3.77,8.5,8.43c.02.75.56,14.64,15,23.81,3.96,2.52,5.14,7.77,2.62,11.73-1.62,2.55-4.37,3.94-7.18,3.94ZM592.8,187.08h0,0Z"/>
    <path fill="#e79b00" d="M598.1,205.8c-1.67,0-3.35-.49-4.83-1.51-18.28-12.64-21.29-19.94-21.13-31.52,0-.49.01-.99.01-1.5,0-4.69,3.81-8.5,8.5-8.5s8.5,3.81,8.5,8.5c0,.59,0,1.17-.02,1.74-.07,4.96-.11,7.69,13.8,17.3,3.86,2.67,4.83,7.96,2.16,11.83-1.65,2.39-4.3,3.67-7,3.67Z"/>
    <path fill="#e79b00" d="M746.83,197.75c-1.56,0-3.14-.43-4.55-1.33-22.62-14.37-22.88-37.13-22.88-38.09,0-4.69,3.81-8.5,8.5-8.5s8.46,3.77,8.5,8.43c.02.75.56,14.64,15,23.81,3.96,2.52,5.14,7.77,2.62,11.73-1.62,2.55-4.37,3.94-7.18,3.94ZM736.4,158.34h0,0Z"/>
    <path fill="#e79b00" d="M746.1,171.03c-1.67,0-3.35-.49-4.83-1.51-22.53-15.57-21.28-32.17-21.06-34.02l16.88,1.99s.02-.11.03-.33c-.01.35-.12,8.74,13.81,18.37,3.86,2.67,4.83,7.96,2.16,11.83-1.65,2.39-4.3,3.67-7,3.67Z"/>
    <path fill="#e79b00" d="M746.1,213.49c-1.67,0-3.35-.49-4.83-1.51-22.53-15.57-21.28-32.17-21.06-34.02l16.88,1.99s.02-.11.03-.33c-.01.35-.12,8.74,13.81,18.37,3.86,2.67,4.83,7.96,2.16,11.83-1.65,2.39-4.3,3.67-7,3.67Z"/>
    <path fill="#e79b00" d="M742.66,228.02c-1.67,0-3.35-.49-4.83-1.51-22.53-15.57-21.28-32.17-21.06-34.02l16.88,1.99s.02-.11.03-.33c-.01.35-.12,8.74,13.81,18.37,3.86,2.67,4.83,7.96,2.16,11.83-1.65,2.39-4.3,3.67-7,3.67Z"/>
    <path fill="#e79b00" d="M652.34,217.45c-1.67,0-3.35-.49-4.83-1.51-14.16-9.79-16.59-15.86-16.46-24.99,0-.35,0-.7,0-1.07,0-4.69,3.81-8.5,8.5-8.5s8.5,3.81,8.5,8.5c0,.44,0,.88-.01,1.3-.03,2.26.02,2.51.36,3.09.73,1.24,2.84,3.58,8.77,7.68,3.86,2.67,4.83,7.96,2.16,11.83-1.65,2.39-4.3,3.67-7,3.67Z"/>
    <path fill="#e79b00" d="M645.94,227.09c-1.67,0-3.35-.49-4.83-1.51-14.16-9.79-16.59-15.86-16.46-24.99,0-.35,0-.7,0-1.06,0-4.69,3.81-8.5,8.5-8.5s8.5,3.81,8.5,8.5c0,.44,0,.88-.01,1.3-.03,2.26.02,2.51.36,3.09.73,1.24,2.84,3.58,8.77,7.68,3.86,2.67,4.83,7.96,2.16,11.83-1.65,2.39-4.3,3.67-7,3.67Z"/>
    <path fill="#e79b00" d="M587.16,231.77c-.81,0-1.63-.12-2.44-.36-25.81-7.72-30.7-15.63-30.7-27.51,0-4.69,3.81-8.5,8.5-8.5s8.5,3.81,8.5,8.5c0,2.73.35,3.05,1.2,3.8,2.48,2.21,8.33,4.71,17.38,7.42,4.5,1.35,7.05,6.08,5.71,10.58-1.1,3.69-4.48,6.07-8.14,6.07Z"/>
    <path fill="#e79b00" d="M588.78,217.09c-.26,0-.52-.01-.78-.04-26.79-2.43-35.52-35.14-35.87-36.53-1.17-4.55,1.56-9.18,6.11-10.35,4.54-1.17,9.17,1.56,10.35,6.09.04.17,1.71,6.31,5.51,12.41,4.4,7.07,9.6,10.93,15.45,11.46,4.68.42,8.12,4.56,7.7,9.23-.4,4.41-4.11,7.73-8.46,7.73Z"/>
  </g>
  <g>
    <path fill="var(--hm-stroke, #000000)" d="M643.6,161.93c-1.88,0-3.77-.62-5.34-1.89-37.08-29.99-104.74-28.15-105.42-28.13-2.4.08-4.68-.84-6.34-2.54-1.67-1.7-2.55-4.01-2.43-6.39,1.03-20.34-2.96-26.87-4.24-28.42-7.39.08-27.18,12.11-41.42,23.67-2.41,1.96-5.7,2.45-8.58,1.27-7.49-3.07-30.94-1.86-45.19-.03-2.38.31-4.78-.41-6.6-1.96-20.67-17.62-31.17-21.58-35.14-22.46-1.49,5.2-1.49,18.29.17,30.13.65,4.65-2.59,8.94-7.24,9.59-4.65.65-8.94-2.59-9.6-7.24-.05-.36-1.25-9.03-1.41-18.57-.25-15.72,2.34-24.66,8.42-29,.04-.03.08-.06.12-.09,2.17-1.49,7.21-3.54,16.63-.5,9.54,3.08,21.71,10.74,36.21,22.78,9.64-1.08,31.43-2.97,45.01.07,11.67-9.07,37.53-27.33,52.99-24.26,4.09.81,16.56,5.88,17.02,36.97,7.62.19,19.46.85,33.11,2.93,31.71,4.81,56.81,14.56,74.62,28.96,3.65,2.95,4.21,8.3,1.26,11.95-1.68,2.08-4.14,3.15-6.61,3.16ZM380.97,94.81h0,0Z"/>
    <path fill="var(--hm-stroke, #000000)" d="M348.2,170.68c-.81,0-1.59-.05-2.34-.17-4.64-.7-7.84-5.02-7.15-9.67.7-4.64,5.02-7.84,9.67-7.15,3.12.22,11.71-4.66,13.07-7.44,1.77-4.35,6.73-6.41,11.07-4.64,4.35,1.77,6.42,6.75,4.65,11.1-3.67,9-18.56,17.96-28.97,17.96Z"/>
    <path fill="var(--hm-stroke, #000000)" d="M338.08,211.04c-2.89,0-5.7-1.47-7.3-4.13-2.42-4.03-1.11-9.25,2.92-11.66,5.41-3.25,13.65-13.24,17.57-18.77,2.71-3.83,8.02-4.73,11.85-2.02,3.83,2.71,4.74,8.01,2.03,11.84-1.25,1.76-12.47,17.38-22.7,23.52-1.37.82-2.88,1.21-4.37,1.21Z"/>
    <path fill="var(--hm-stroke, #000000)" d="M348.15,262.58c-3.07,0-6.03-1.66-7.54-4.57-3.97-7.6-3.25-18.07,2.19-31.99,3.56-9.1,7.93-16.47,8.12-16.78,2.4-4.03,7.62-5.35,11.65-2.94,4.03,2.4,5.35,7.62,2.95,11.65h0c-8.36,14.06-11.9,28.26-9.84,32.2,2.17,4.16.56,9.3-3.6,11.47-1.26.66-2.6.97-3.93.97Z"/>
    <path fill="var(--hm-stroke, #000000)" d="M551.76,170.61c-.9,0-1.81-.14-2.71-.45-15.9-5.35-28.31-19.17-28.83-19.76-3.12-3.51-2.8-8.88.71-12,3.5-3.11,8.87-2.8,11.99.69h0c.1.11,10.01,11.06,21.56,14.95,4.45,1.5,6.84,6.32,5.34,10.77-1.2,3.55-4.51,5.79-8.05,5.79Z"/>
    <path fill="var(--hm-stroke, #000000)" d="M554.91,202.75c-1.19,0-2.39-.25-3.54-.77-12.32-5.65-23.92-20.2-25.2-21.84-2.89-3.7-2.23-9.04,1.47-11.93,3.7-2.89,9.04-2.24,11.93,1.46,2.79,3.56,11.62,13.52,18.89,16.85,4.27,1.96,6.14,7,4.19,11.27-1.43,3.12-4.51,4.96-7.73,4.96Z"/>
    <path fill="var(--hm-stroke, #000000)" d="M554.91,245.03c-3.52,0-6.82-2.21-8.03-5.72-2.74-7.92-12.65-18.4-16.23-21.78-3.42-3.21-3.59-8.59-.38-12.01,3.21-3.42,8.59-3.59,12.01-.39,1.63,1.53,16.06,15.32,20.66,28.61,1.54,4.44-.82,9.28-5.25,10.81-.92.32-1.86.47-2.78.47Z"/>
    <path fill="var(--hm-stroke, #000000)" d="M526.58,267.52c-.4,0-.8-.03-1.21-.09-4.65-.66-7.88-4.97-7.21-9.62.63-4.38.17-12.79-.06-15.67-.37-4.68,3.12-8.77,7.8-9.15,4.67-.37,8.77,3.12,9.15,7.79.1,1.25.95,12.39-.06,19.42-.61,4.24-4.24,7.3-8.4,7.3Z"/>
    <path fill="var(--hm-stroke, #000000)" d="M459.39,301.27c-.77,0-1.56-.11-2.34-.33-10.36-2.96-13.38-9.56-14.84-12.73-1.96-4.27-.09-9.31,4.18-11.27,4.27-1.96,9.31-.09,11.27,4.18.94,2.04,1.22,2.66,4.06,3.47,4.51,1.29,7.13,5.99,5.84,10.51-1.07,3.73-4.47,6.17-8.17,6.17Z"/>
    <path fill="var(--hm-stroke, #000000)" d="M438.63,299.59c-.77,0-1.56-.11-2.34-.33-7.77-2.22-12.87-6.78-15.16-13.54-1.5-4.45.88-9.27,5.33-10.78,4.45-1.5,9.27.88,10.78,5.33.28.82.59,1.75,3.73,2.65,4.51,1.29,7.13,5.99,5.84,10.51-1.07,3.73-4.47,6.17-8.17,6.17Z"/>
    <path fill="var(--hm-stroke, #000000)" d="M416.11,299.13c-.87,0-1.76-.14-2.64-.42-5.56-1.82-10.29-6.17-14.06-12.93-2.41-4.33-3.6-8.22-3.73-8.65-1.34-4.5,1.22-9.23,5.72-10.57,4.49-1.33,9.21,1.21,10.56,5.7,1.3,4.24,4.47,9.54,6.77,10.29,4.46,1.46,6.9,6.25,5.44,10.72-1.17,3.59-4.5,5.87-8.08,5.87Z"/>
    <path fill="var(--hm-stroke, #000000)" d="M363.48,289.85c-3.13,0-6.15-1.74-7.63-4.74-8.75-17.74-4.39-35.53-4.2-36.28,1.15-4.55,5.78-7.3,10.33-6.15,4.54,1.15,7.29,5.75,6.16,10.29-.08.33-2.9,12.75,2.96,24.62,2.08,4.21.35,9.31-3.86,11.38-1.21.6-2.49.88-3.75.88Z"/>
    <path fill="var(--hm-stroke, #000000)" d="M401.16,327.4c-16.51,0-29.51-13.04-35.08-22.05-2.47-3.99-1.24-9.23,2.76-11.7,3.98-2.47,9.21-1.24,11.69,2.73.12.19,3.79,5.9,9.6,10,6.74,4.77,13.02,5.25,19.75,1.51,6.13-3.4,8.48-6.42,8.64-7.98.13-1.31-1.33-3.03-2.02-3.61l.11.09,10.55-13.33c.94.75,9.17,7.59,8.31,18.2-.67,8.24-6.5,15.48-17.33,21.49-5.93,3.29-11.63,4.65-16.96,4.65Z"/>
    <path fill="var(--hm-stroke, #000000)" d="M441.77,333.12c-2.79,0-5.57-.33-8.31-1.06-10.48-2.79-14.26-8.88-15.59-13.5-3.83-13.27,8.95-27.9,11.56-30.69,3.2-3.44,8.57-3.64,12.01-.44,3.44,3.2,3.63,8.57.44,12.01-4.54,4.93-8.35,12.08-7.67,14.41.05.17.86,1.04,3.63,1.78,4.84,1.29,11.49-.11,18.72-3.94,7.17-3.79,13-9,15.59-12.49,2.8-3.76,8.13-4.54,11.9-1.74,3.76,2.81,4.54,8.13,1.74,11.9-6.9,9.26-25.54,23.75-44,23.75Z"/>
    <path fill="var(--hm-stroke, #000000)" d="M470.32,331.31c-3.19,0-6.35-.29-9.39-.93-4.6-.96-7.54-5.46-6.59-10.06.96-4.6,5.46-7.55,10.06-6.59,13.4,2.79,29.32-4.67,33.52-9.66,3.02-3.59,8.39-4.05,11.98-1.03,3.59,3.02,4.05,8.38,1.03,11.98-7.3,8.67-24.34,16.28-40.6,16.28Z"/>
    <path fill="var(--hm-stroke, #000000)" d="M490.43,332.08c-4.69,0-8.5-3.81-8.5-8.5s3.81-8.5,8.5-8.5c15.92,0,32.67-6.22,40.99-12.36,3.78-2.79,9.1-1.99,11.89,1.79,2.79,3.78,1.99,9.1-1.79,11.89-10.23,7.55-30.58,15.68-51.08,15.68Z"/>
    <path fill="var(--hm-stroke, #000000)" d="M675.46,219.84c-3.87,0-7.37-2.66-8.28-6.6-6.27-27.29-37.54-43.38-37.86-43.54-4.18-2.12-5.87-7.22-3.76-11.41,2.11-4.19,7.2-5.88,11.39-3.78,1.58.79,38.71,19.76,46.8,54.93,1.05,4.58-1.8,9.14-6.38,10.19-.64.15-1.28.22-1.91.22Z"/>
    <path fill="var(--hm-stroke, #000000)" d="M678.65,262.58c-4.69,0-8.5-3.81-8.5-8.5,0-17.86-15.65-37.14-15.81-37.33-2.98-3.62-2.46-8.98,1.16-11.96,3.62-2.98,8.97-2.47,11.95,1.14.8.97,19.69,24.12,19.69,48.15,0,4.69-3.81,8.5-8.5,8.5Z"/>
    <path fill="var(--hm-stroke, #000000)" d="M651.01,308.4c-2.28,0-4.55-.91-6.23-2.71-3.2-3.44-3-8.82.44-12.01,12.44-11.56,12.3-28.21,12.21-40.37,0-1.06-.02-2.08-.02-3.05,0-4.69,3.81-8.5,8.5-8.5s8.5,3.81,8.5,8.5c0,.93,0,1.9.02,2.92.11,13.57.29,36.29-17.63,52.95-1.64,1.52-3.71,2.27-5.79,2.27Z"/>
    <path fill="var(--hm-stroke, #000000)" d="M610.38,322.05c-3.9,0-7.41-2.7-8.29-6.67-1.01-4.58,1.88-9.12,6.46-10.14,17.8-3.94,26.02-18.48,27.49-21.35,2.13-4.18,7.25-5.84,11.44-3.71,4.18,2.13,5.84,7.25,3.71,11.44-2.08,4.07-13.71,24.63-38.96,30.22-.62.14-1.24.2-1.84.2Z"/>
    <path fill="var(--hm-stroke, #000000)" d="M574.44,327.36h-52.41c-4.69,0-8.5-3.81-8.5-8.5s3.81-8.5,8.5-8.5h51.92c10.11-1.19,17.05-2.94,20.63-5.2,2.23-1.41,2.97-2.85,4.58-6.26.44-.94.9-1.9,1.4-2.88,2.15-4.18,7.27-5.82,11.45-3.67,4.17,2.15,5.82,7.27,3.67,11.45-.41.8-.78,1.59-1.14,2.35-4.87,10.32-10.52,17.88-39.12,21.16-.32.04-.65.06-.97.06Z"/>
    <g>
      <path fill="var(--hm-stroke, #000000)" d="M678.03,244.6c-4.22,0-7.89-3.15-8.42-7.45-.58-4.64,2.7-8.88,7.33-9.48.17-.02,4.31-.64,8.06-2.87,4-2.37,5.67-5.37,5.44-9.73-.26-4.69,3.34-8.69,8.02-8.95,4.66-.27,8.69,3.34,8.95,8.02.6,10.95-4.5,20.06-14.36,25.64-6.62,3.75-13.23,4.66-13.96,4.75-.36.04-.71.07-1.06.07Z"/>
      <path fill="var(--hm-stroke, #000000)" d="M706.19,230.62c-.96,0-1.94-.16-2.89-.51-4.41-1.6-6.7-6.47-5.1-10.88,3.45-9.59,6.87-26.21,3.68-33.12-1.97-4.26-.11-9.31,4.16-11.28,4.26-1.97,9.31-.11,11.28,4.16,7.37,15.97-2.03,43-3.12,46.03-1.25,3.46-4.52,5.61-7.99,5.61Z"/>
      <path fill="var(--hm-stroke, #000000)" d="M728.42,261.9c-.53,0-1.06-.05-1.6-.15-4.61-.88-7.64-5.33-6.76-9.94,3.28-17.28,26.64-33.81,29.29-35.64,3.87-2.67,9.16-1.69,11.82,2.17,2.66,3.86,1.69,9.16-2.17,11.82-8.38,5.8-20.82,17.33-22.24,24.82-.77,4.08-4.34,6.91-8.34,6.91Z"/>
      <path fill="var(--hm-stroke, #000000)" d="M750.09,230.32c-3.55,0-6.86-2.24-8.05-5.79-5.62-16.66,6.61-42.54,8.03-45.43,2.06-4.22,7.15-5.97,11.37-3.91s5.97,7.14,3.91,11.36h0c-4.46,9.17-9.63,25.32-7.2,32.55,1.5,4.45-.89,9.27-5.34,10.77-.9.3-1.82.45-2.72.45Z"/>
      <path fill="var(--hm-stroke, #000000)" d="M719.11,194.42c-4.57,0-8.34-3.62-8.49-8.22h0c-.24-6.84-2.5-19.46-7.53-24.21-3.41-3.22-3.57-8.6-.35-12.02,3.22-3.41,8.6-3.57,12.02-.35,11.74,11.07,12.77,33.5,12.85,36.02.15,4.69-3.54,8.62-8.23,8.76-.09,0-.18,0-.27,0Z"/>
      <path fill="var(--hm-stroke, #000000)" d="M745.9,186.12c-3.73,0-7.16-2.48-8.19-6.26-4.26-15.56,6.52-35.26,7.76-37.45,2.31-4.08,7.5-5.52,11.58-3.21,4.08,2.31,5.52,7.49,3.21,11.58-3.35,5.97-7.99,17.91-6.16,24.59,1.24,4.53-1.42,9.2-5.95,10.44-.75.21-1.51.3-2.25.3Z"/>
      <path fill="var(--hm-stroke, #000000)" d="M719.1,158.01c-3.87,0-7.37-2.66-8.27-6.59-.85-3.62-4.03-11.8-8.44-14-4.2-2.1-5.9-7.21-3.8-11.4,2.1-4.2,7.2-5.9,11.4-3.8,12.74,6.37,16.96,23.47,17.4,25.4,1.04,4.58-1.82,9.13-6.4,10.17-.64.15-1.27.21-1.9.21Z"/>
      <path fill="var(--hm-stroke, #000000)" d="M725.2,138.32c-3.18,0-6.24-1.8-7.69-4.87-1.5-3.14-6.56-12.27-12.03-16.82-3.61-3-4.1-8.36-1.09-11.97,3-3.61,8.36-4.1,11.97-1.09,9.34,7.78,15.81,21.12,16.52,22.62,2.01,4.24.19,9.31-4.05,11.32-1.17.55-2.41.82-3.63.82Z"/>
      <path fill="var(--hm-stroke, #000000)" d="M740.81,156.41c-3.34,0-6.51-1.99-7.86-5.27-4.62-11.24-4.11-26.06-4.03-27.71.21-4.69,4.21-8.33,8.87-8.11,4.69.21,8.32,4.18,8.11,8.86h0c-.15,3.47.07,13.92,2.77,20.5,1.79,4.34-.29,9.31-4.63,11.09-1.06.44-2.15.64-3.23.64Z"/>
      <path fill="var(--hm-stroke, #000000)" d="M694.51,283.58c-1.71,0-3.43-.51-4.92-1.58-4.54-3.23-13.92-.82-17.75.85-4.29,1.87-9.3-.07-11.19-4.35-1.89-4.28.02-9.28,4.3-11.19,2.1-.94,20.88-8.86,34.5.84,3.82,2.72,4.72,8.03,2,11.85-1.66,2.33-4.28,3.57-6.93,3.57Z"/>
      <path fill="var(--hm-stroke, #000000)" d="M696.63,272.91c-3.53,0-6.83-2.22-8.04-5.74-1.52-4.44.83-9.26,5.26-10.79.26-.09,6.47-2.21,14.14-3.38,11.42-1.74,20.39-.53,26.66,3.59,3.92,2.58,5.01,7.85,2.43,11.77-2.58,3.92-7.85,5.01-11.77,2.43-2.91-1.91-13.16-2.7-25.93,1.66-.91.31-1.84.46-2.75.46Z"/>
    </g>
  </g>
  <g>
    <circle fill="var(--hm-stroke, #000000)" cx="404.82" cy="173.79" r="9.61"/>
    <circle fill="var(--hm-stroke, #000000)" cx="461.17" cy="173.79" r="9.61"/>
  </g></g></svg>
