<svg width="80" height="80" viewBox="0 0 80 80" xmlns="http://www.w3.org/2000/svg"><g transform="scale(0.078125)"><polygon fill="#594319" points="514.81 86.88 473.05 111.63 423.55 111.04 378.18 86.88 374.65 126.36 365.31 149.51 352.08 184.28 354.41 213.59 352.41 250.25 358.21 259.02 373.31 300.87 400.16 318.83 422.08 309.56 439.62 323.75 462.66 322.06 494.48 323.58 532.87 318.86 589.37 316.57 605.7 304.29 610.39 313.55 640.6 293.65 651 299.9 668.41 275.08 691.68 273.48 706.19 264.41 727.9 259.02 750.09 221.82 756.31 185.92 745.9 177.62 749.03 149.51 733.93 123.8 721.9 123.8 715.32 139.67 714.02 167.22 713.3 197.29 706.19 219.52 698.96 219.52 678.04 238.29 660.9 211.34 674.75 208.59 656.04 178.96 636.85 164.19 643.61 153.43 587.15 128.86 532.57 123.41 526.97 89.86 514.81 86.88"/>
  <g>
    <path fill="#453100" d="M587.14,227.98c-2.08,0-4.18-.57-6.07-1.77-12.03-7.64-18.08-17.58-21.12-25.69-2.68-7.16,2.71-14.79,10.36-14.79h9.25v-.16c.01.53.53,12.99,13.43,21.34,4.6,2.98,6.78,8.73,4.75,13.82-1.85,4.66-6.17,7.25-10.6,7.25Z"/>
    <path fill="#453100" d="M586.41,243.72c-2.22,0-4.47-.65-6.44-2.01-9.71-6.71-16.4-14.44-19.89-22.97-.03-.07-.06-.14-.09-.21-2.52-6.26,2.68-12.92,9.39-12.13l10.85,1.28s.05-.22.05-.62c0,.3.19,7.32,12.3,15.8,4.99,3.49,6.7,10.29,3.5,15.47-2.17,3.51-5.88,5.4-9.67,5.4Z"/>
    <path fill="#aa7600" d="M584.29,198.06c-2.08,0-4.18-.57-6.07-1.77-11.38-7.23-17.41-16.51-20.61-24.37s2.67-16.11,10.99-16.11h8.1v-.16c.01.53.53,12.94,13.37,21.29,4.64,3.02,6.86,8.81,4.79,13.94-1.87,4.61-6.16,7.18-10.57,7.18Z"/>
    <path fill="#aa7600" d="M603.23,229.33c-2.08,0-4.18-.57-6.07-1.77-23.92-15.2-24.2-39.46-24.2-40.48h22.68v-.16c.01.53.53,13.15,13.68,21.5,5.29,3.36,6.85,10.37,3.49,15.65-2.16,3.4-5.83,5.26-9.58,5.26Z"/>
    <path fill="#aa7600" d="M598.1,208.64c-2.22,0-4.47-.65-6.44-2.01-19.23-13.29-22.53-21.52-22.36-33.9,0-.48.01-.96.01-1.46,0-6.26,5.08-11.34,11.34-11.34s11.34,5.08,11.34,11.34c0,.6,0,1.19-.02,1.77-.04,3.15.03,3.51.53,4.36,1.01,1.72,3.92,4.95,12.05,10.57,5.15,3.56,6.44,10.62,2.88,15.78-2.2,3.19-5.74,4.89-9.34,4.89Z"/>
    <path fill="#aa7600" d="M621.41,256.55c-2.08,0-4.18-.57-6.07-1.77-23.41-14.87-24.18-38.41-24.2-40.38,0-.06.04-.1.1-.1h22.58s-.04-.16,0-.16c.53,0,.53,12.94,13.37,21.29,4.64,3.02,6.87,8.81,4.79,13.94-1.87,4.61-6.16,7.17-10.57,7.17Z"/>
    <path fill="#aa7600" d="M648.26,286.04c-2.08,0-4.18-.57-6.07-1.77-23.92-15.2-24.2-39.46-24.2-40.48h22.68v-.16c.01.53.53,13.15,13.68,21.5,5.29,3.36,6.85,10.37,3.49,15.65-2.16,3.4-5.83,5.26-9.58,5.26Z"/>
    <path fill="#aa7600" d="M643.38,266.11c-2.22,0-4.47-.65-6.44-2.01-19.23-13.29-22.53-21.52-22.36-33.9,0-.48.01-.96.01-1.46,0-6.26,5.08-11.34,11.34-11.34s11.34,5.08,11.34,11.34c0,.6,0,1.19-.02,1.77-.04,3.15.03,3.51.53,4.36,1.01,1.72,3.92,4.95,12.05,10.57,5.15,3.56,6.44,10.62,2.88,15.78-2.2,3.18-5.74,4.89-9.34,4.89Z"/>
    <path fill="#aa7600" d="M447.06,288.65c-2.08,0-4.18-.57-6.07-1.77-23.92-15.2-24.2-39.46-24.2-40.48h22.68v-.16c.01.53.53,13.15,13.68,21.5,5.29,3.36,6.85,10.37,3.49,15.65-2.16,3.4-5.83,5.26-9.58,5.26Z"/>
    <path fill="#aa7600" d="M460.87,299.23c-2.22,0-4.47-.65-6.44-2.01-19.23-13.29-22.53-21.52-22.36-33.9,0-.48.01-.96.01-1.46,0-6.26,5.08-11.34,11.34-11.34s11.34,5.08,11.34,11.34c0,.6,0,1.19-.02,1.77-.04,3.15.03,3.51.53,4.36,1.01,1.72,3.92,4.95,12.05,10.57,5.15,3.56,6.44,10.62,2.88,15.78-2.2,3.18-5.74,4.89-9.34,4.89Z"/>
    <path fill="#453100" d="M720.52,196.3c-3.75,0-7.42-1.86-9.58-5.26-3.36-5.29-1.79-12.29,3.49-15.65,13.15-8.35,13.67-20.96,13.68-21.5v.16s22.68,0,22.68,0c0,1.03-.28,25.29-24.2,40.48-1.89,1.2-3.99,1.77-6.07,1.77Z"/>
    <path fill="#453100" d="M716.46,169.11c-3.6,0-7.14-1.71-9.34-4.89-3.56-5.15-2.27-12.22,2.88-15.78,12.39-8.57,12.58-15.69,12.59-16,0,.4.05.62.05.62l22.53-2.65c.24,2.02,1.63,20.17-22.27,36.68-1.97,1.36-4.21,2.01-6.44,2.01Z"/>
    <path fill="#453100" d="M416.07,317.42c-2.08,0-4.18-.57-6.07-1.77-23.92-15.2-24.2-39.46-24.2-40.48h22.68v-.16c.01.53.53,13.15,13.68,21.5,5.29,3.36,6.85,10.37,3.49,15.65-2.16,3.4-5.83,5.26-9.58,5.26Z"/>
    <path fill="#453100" d="M404.15,304.65c-2.22,0-4.47-.65-6.44-2.01-9.71-6.71-16.4-14.44-19.89-22.97-.03-.07-.06-.14-.09-.21-2.52-6.26,2.68-12.92,9.39-12.13l10.85,1.28s.05-.22.05-.62c0,.3.19,7.32,12.3,15.8,4.99,3.49,6.7,10.29,3.5,15.47-2.17,3.51-5.88,5.4-9.67,5.4Z"/>
    <path fill="#453100" d="M402.2,324.71c-2.08,0-4.18-.57-6.07-1.77-23.92-15.2-24.2-39.46-24.2-40.48h22.68v-.16c.01.53.53,13.15,13.68,21.5,5.29,3.36,6.85,10.37,3.49,15.65-2.16,3.4-5.83,5.26-9.58,5.26Z"/>
    <path fill="#453100" d="M390.29,311.93c-2.22,0-4.47-.65-6.44-2.01-9.71-6.71-16.4-14.44-19.89-22.97-.03-.07-.06-.14-.09-.21-2.52-6.26,2.68-12.92,9.39-12.13l10.85,1.28s.05-.22.05-.62c0,.3.19,7.32,12.3,15.8,4.99,3.49,6.7,10.29,3.5,15.47-2.17,3.51-5.88,5.4-9.67,5.4Z"/>
    <path fill="#453100" d="M442.21,306.35c-2.37,0-3.85-.19-4.09-.22l3.1-22.47-.16-.02c.53.06,13.11,1.27,23.18-10.61,4.05-4.78,11.21-5.36,15.98-1.31,4.78,4.05,5.37,11.21,1.31,15.98-14.07,16.59-31.52,18.65-39.33,18.65Z"/>
    <path fill="#453100" d="M433.07,315.71c-2.97,0-4.92-.44-5.5-.59l5.7-21.95s-.21-.08-.61-.13c.3.04,7.39.83,17.57-10.28,4.23-4.62,11.41-4.93,16.02-.69,4.62,4.23,4.93,11.41.69,16.02-13.84,15.1-26.77,17.62-33.88,17.62Z"/>
    <path fill="#453100" d="M447.53,321.08c-2.37,0-3.85-.19-4.09-.22l3.1-22.47-.16-.02c.53.06,13.11,1.27,23.18-10.61,4.05-4.78,11.21-5.36,15.98-1.31,4.78,4.05,5.37,11.21,1.31,15.98-14.07,16.59-31.52,18.65-39.33,18.65Z"/>
    <path fill="#453100" d="M438.39,330.44c-2.97,0-4.92-.44-5.5-.59l5.7-21.95s-.21-.08-.61-.13c.3.04,7.39.83,17.57-10.28,4.23-4.62,11.41-4.93,16.02-.69,4.62,4.23,4.93,11.41.69,16.02-13.84,15.1-26.77,17.62-33.88,17.62Z"/>
    <path fill="#453100" d="M491.15,182.47c-2.08,0-4.18-.57-6.07-1.77-23.92-15.2-24.2-39.46-24.2-40.48h22.68v-.16c.01.53.53,13.15,13.68,21.5,5.29,3.36,6.85,10.37,3.49,15.65-2.16,3.4-5.83,5.26-9.58,5.26Z"/>
    <path fill="#453100" d="M490.42,148.98c-2.22,0-4.47-.65-6.44-2.01-9.71-6.71-16.4-14.44-19.89-22.97-2.88-7.03-2.55-12.28-2.38-13.72l22.52,2.65s.05-.22.05-.62c0,.3.19,7.43,12.59,16,5.15,3.56,6.44,10.62,2.88,15.78-2.2,3.18-5.74,4.89-9.34,4.89Z"/>
    <path fill="#453100" d="M713.64,223.77c-3.6,0-7.14-1.71-9.34-4.89-3.56-5.15-2.27-12.22,2.88-15.78,12.39-8.57,12.58-15.69,12.59-16,0,.4.05.62.05.62l22.53-2.65c.24,2.02,1.63,20.17-22.27,36.68-1.97,1.36-4.21,2.01-6.44,2.01Z"/>
    <path fill="#453100" d="M725.2,221.65c-3.6,0-7.14-1.71-9.34-4.89-3.56-5.15-2.27-12.22,2.88-15.78,12.4-8.57,12.58-15.7,12.59-16,0,.4.05.62.05.62l22.53-2.65c.24,2.02,1.63,20.17-22.26,36.68-1.97,1.36-4.21,2.01-6.44,2.01Z"/>
    <path fill="#453100" d="M661.45,246.42c-2.22,0-4.47-.65-6.44-2.01-9.71-6.71-16.4-14.44-19.89-22.97-2.88-7.03-2.55-12.28-2.38-13.72l22.53,2.65s.05-.22.05-.62c0,.3.19,7.43,12.59,16,5.15,3.56,6.44,10.62,2.88,15.78-2.2,3.18-5.74,4.89-9.34,4.89Z"/>
    <path fill="#453100" d="M659.66,257.45c-2.22,0-4.47-.65-6.44-2.01-9.71-6.71-16.4-14.44-19.89-22.97-2.88-7.03-2.55-12.28-2.38-13.72l22.53,2.65s.05-.22.05-.62c0,.3.19,7.43,12.59,16,5.15,3.56,6.44,10.62,2.88,15.78-2.2,3.18-5.74,4.89-9.34,4.89Z"/>
    <path fill="#aa7600" d="M652.34,220.29c-2.23,0-4.47-.65-6.44-2.02-15.12-10.46-17.82-17.43-17.68-27.37,0-.33,0-.67,0-1.02,0-6.26,5.08-11.34,11.34-11.34s11.34,5.08,11.34,11.34c0,.46,0,.9-.01,1.34,0,.57-.02,1.32,0,1.68.3.47,1.81,2.51,7.9,6.72,5.15,3.56,6.44,10.63,2.87,15.78-2.2,3.18-5.74,4.89-9.33,4.89ZM650.92,193.04h0,0Z"/>
    <path fill="#aa7600" d="M730.66,232.22c-3.6,0-7.13-1.71-9.33-4.89-3.56-5.15-2.28-12.21,2.87-15.78,6.08-4.21,7.6-6.25,7.9-6.72.03-.37.02-1.12,0-1.68,0-.44-.01-.88-.01-1.34,0-6.26,5.08-11.34,11.34-11.34s11.34,5.08,11.34,11.34c0,.35,0,.69,0,1.02.14,9.95-2.56,16.91-17.68,27.37-1.97,1.36-4.22,2.02-6.44,2.02Z"/>
    <path fill="#aa7600" d="M645.93,229.93c-2.23,0-4.47-.65-6.44-2.02-15.12-10.46-17.82-17.43-17.68-27.37,0-.33,0-.67,0-1.02,0-6.26,5.08-11.34,11.34-11.34s11.34,5.08,11.34,11.34c0,.46,0,.9-.01,1.34,0,.57-.02,1.32,0,1.68.3.47,1.81,2.51,7.9,6.72,5.15,3.56,6.44,10.63,2.87,15.78-2.2,3.18-5.74,4.89-9.34,4.89ZM644.51,202.68h0,0Z"/>
    <path fill="#aa7600" d="M598.96,308.83c-2.23,0-4.47-.65-6.44-2.02-15.12-10.46-17.82-17.43-17.68-27.37,0-.33,0-.67,0-1.02,0-6.26,5.08-11.34,11.34-11.34s11.34,5.08,11.34,11.34c0,.46,0,.9-.01,1.34,0,.57-.02,1.32,0,1.68.3.47,1.81,2.51,7.9,6.72,5.15,3.56,6.44,10.63,2.87,15.78-2.2,3.18-5.74,4.89-9.33,4.89ZM597.54,281.58h0,0Z"/>
    <path fill="#aa7600" d="M592.56,318.46c-2.23,0-4.47-.65-6.44-2.02-15.12-10.46-17.82-17.43-17.68-27.37,0-.33,0-.67,0-1.02,0-6.26,5.08-11.34,11.34-11.34s11.34,5.08,11.34,11.34c0,.46,0,.9-.01,1.34,0,.57-.02,1.32,0,1.68.3.48,1.81,2.51,7.9,6.72,5.15,3.56,6.44,10.63,2.87,15.78-2.2,3.18-5.74,4.89-9.33,4.89ZM591.14,291.21h0,0Z"/>
    <path fill="#aa7600" d="M377.03,189.11c-2.94,0-5.79-.62-8.85-1.62-.32-.1-.64-.21-.98-.31-5.98-1.86-9.33-8.21-7.47-14.19s8.21-9.33,14.19-7.47c.44.14.87.27,1.28.41.54.17,1.25.41,1.6.49.54-.15,2.94-.99,8.76-5.55,4.93-3.86,12.06-3,15.92,1.93,3.86,4.93,3,12.06-1.93,15.92-9.79,7.67-16.37,10.39-22.52,10.39Z"/>
    <path fill="#aa7600" d="M368.29,185.12c-2.94,0-5.79-.62-8.85-1.62-.32-.1-.64-.21-.98-.31-5.98-1.86-9.33-8.21-7.47-14.19,1.85-5.98,8.21-9.33,14.19-7.47.44.14.87.27,1.28.41.54.17,1.25.41,1.6.49.54-.14,2.94-.99,8.76-5.55,4.93-3.86,12.06-3,15.92,1.93,3.86,4.93,3,12.06-1.93,15.92-9.79,7.67-16.37,10.38-22.52,10.38Z"/>
    <path fill="#aa7600" d="M388.77,185.51c-5.8,0-10.75-4.43-11.28-10.31-.57-6.24,4.03-11.75,10.27-12.32.46-.04.9-.08,1.34-.11.56-.04,1.31-.1,1.67-.16.45-.34,2.34-2.04,5.98-8.47,3.08-5.45,10-7.38,15.45-4.3,5.45,3.08,7.38,10,4.3,15.45-9.05,16.01-15.74,19.33-25.66,20.09-.33.03-.67.05-1.02.08-.35.03-.7.05-1.04.05Z"/>
    <path fill="#aa7600" d="M567.5,280.15c-1.08,0-2.17-.15-3.26-.48-12.53-3.75-19.98-7.23-24.91-11.64-7-6.26-7.82-13.61-7.82-18.59,0-6.26,5.08-11.34,11.34-11.34s11.34,5.08,11.34,11.34c0,.88.05,1.33.08,1.53.55.59,3.5,3.09,16.47,6.98,6,1.8,9.41,8.12,7.61,14.12-1.47,4.91-5.98,8.09-10.86,8.09ZM554.31,251.11h0,0Z"/>
    <path fill="#aa7600" d="M569.12,265.46c-.34,0-.69-.02-1.04-.05-22.96-2.09-34.92-25.28-38.37-38.66-1.56-6.06,2.09-12.25,8.15-13.81,6.05-1.56,12.22,2.07,13.8,8.11.1.36,5.88,20.62,18.47,21.77,6.24.57,10.83,6.08,10.27,12.32-.54,5.89-5.48,10.31-11.28,10.31Z"/>
    <path fill="#aa7600" d="M375.12,214.87c-.21,0-.41,0-.6,0-6.26-.09-11.27-5.24-11.18-11.5.09-6.26,5.25-11.3,11.5-11.18.88.01,1.33-.03,1.54-.06.6-.54,3.14-3.45,7.21-16.36,1.88-5.97,8.25-9.29,14.22-7.41,5.97,1.88,9.29,8.25,7.41,14.22-3.93,12.47-7.52,19.87-11.99,24.73-6.11,6.64-13.14,7.55-18.1,7.55Z"/>
    <path fill="#aa7600" d="M348.14,213.64c-5.5,0-10.32-4-11.19-9.6-.96-6.17,3.26-11.96,9.42-12.94.33-.06,21.1-3.83,23.46-16.24,1.17-6.15,7.11-10.19,13.26-9.02,6.15,1.17,10.19,7.11,9.02,13.26-4.32,22.65-28.57,32.28-42.22,34.4-.59.09-1.18.14-1.75.14Z"/>
    <path fill="#aa7600" d="M625.77,314.99c-1.08,0-2.17-.15-3.26-.48-12.53-3.75-19.98-7.23-24.91-11.64-7-6.26-7.82-13.61-7.82-18.59,0-6.26,5.08-11.34,11.34-11.34s11.34,5.08,11.34,11.34c0,.88.05,1.33.08,1.53.55.59,3.5,3.09,16.47,6.98,6,1.8,9.41,8.12,7.61,14.12-1.47,4.91-5.98,8.09-10.86,8.09ZM612.58,285.95h0,0Z"/>
    <path fill="#aa7600" d="M627.4,300.31c-.34,0-.69-.02-1.04-.05-22.96-2.09-34.92-25.28-38.36-38.66-1.56-6.06,2.09-12.25,8.15-13.81,6.05-1.56,12.22,2.07,13.8,8.11.1.36,5.88,20.62,18.46,21.77,6.24.57,10.83,6.08,10.27,12.32-.53,5.89-5.48,10.31-11.28,10.31Z"/>
    <path fill="#aa7600" d="M577.68,324.68c-1.08,0-2.17-.15-3.26-.48-12.53-3.75-19.98-7.23-24.91-11.64-7-6.26-7.82-13.61-7.82-18.59,0-6.26,5.08-11.34,11.34-11.34s11.34,5.08,11.34,11.34c0,.88.05,1.33.08,1.53.55.59,3.5,3.09,16.47,6.97,6,1.8,9.41,8.12,7.61,14.12-1.47,4.91-5.98,8.09-10.86,8.09ZM564.49,295.64h0,0Z"/>
    <path fill="#aa7600" d="M496.46,288.7c-17.23,0-32.29-12.52-39.4-21.36-3.92-4.88-3.14-12.02,1.74-15.94,4.87-3.91,11.99-3.15,15.92,1.71.24.29,13.86,16.37,25.79,12.23,5.92-2.05,12.38,1.08,14.43,7,2.05,5.92-1.08,12.38-7,14.43-3.89,1.35-7.73,1.94-11.48,1.94Z"/>
    <path fill="#aa7600" d="M471.24,165.37c-2.08,0-4.18-.57-6.07-1.77-6.8-4.32-11.69-9.37-15.2-14.41-7.67-10.99.28-26.07,13.68-26.07h0v-.16c.01.53.53,12.95,13.37,21.3,4.64,3.01,6.86,8.81,4.79,13.94-1.87,4.61-6.16,7.18-10.57,7.18Z"/>
    <path fill="#aa7600" d="M485.05,175.95c-2.22,0-4.47-.65-6.44-2.01-19.23-13.29-22.53-21.52-22.36-33.9,0-.48.01-.96.01-1.46,0-6.26,5.08-11.34,11.34-11.34s11.34,5.08,11.34,11.34c0,.6,0,1.19-.02,1.77-.04,3.15.03,3.51.53,4.36,1.01,1.72,3.92,4.95,12.05,10.57,5.15,3.56,6.44,10.62,2.88,15.78-2.2,3.18-5.74,4.89-9.34,4.89Z"/>
    <path fill="#aa7600" d="M475.73,187.24c-.34,0-.69-.02-1.04-.05-22.96-2.09-34.92-25.28-38.37-38.66-1.56-6.07,2.09-12.25,8.15-13.81,6.05-1.56,12.22,2.07,13.8,8.11.1.37,5.89,20.62,18.47,21.76,6.24.57,10.83,6.08,10.27,12.32-.54,5.89-5.48,10.31-11.28,10.31Z"/>
    <path fill="#453100" d="M713.64,247.95c-3.78,0-7.5-1.89-9.67-5.4-3.2-5.18-1.49-11.98,3.5-15.47,12.11-8.48,12.29-15.49,12.3-15.79,0,.4.05.62.05.62h0c12.84-1.51,20.9,13.58,12.42,23.34-3.06,3.52-7.03,7.14-12.16,10.69-1.97,1.36-4.21,2.01-6.44,2.01Z"/>
    <path fill="#453100" d="M468.06,257.23c-2.24,0-4.51-.66-6.48-2.04-9.74-6.8-15.93-17.93-16.57-29.78-.34-6.25,4.46-11.6,10.71-11.94,6.26-.35,11.6,4.46,11.94,10.71.26,4.86,2.91,9.61,6.91,12.41,5.13,3.59,6.39,10.66,2.8,15.79-2.21,3.16-5.73,4.85-9.31,4.85Z"/>
    <path fill="#453100" d="M485.7,256.99c-.85,0-1.71-.1-2.57-.3-12.14-2.82-21.63-13.87-22.56-26.29-.47-6.25,4.21-11.69,10.45-12.16,6.24-.48,11.69,4.21,12.16,10.45.2,2.61,2.52,5.32,5.08,5.91,6.1,1.42,9.9,7.51,8.48,13.61-1.22,5.24-5.88,8.78-11.04,8.78Z"/>
    <path fill="#453100" d="M383.37,254.29c-4.15,0-8.15-2.28-10.14-6.24-2.82-5.59-.56-12.41,5.03-15.23,3.87-1.95,6.72-6.16,7.1-10.47.55-6.24,6.06-10.85,12.29-10.31,6.24.55,10.85,6.05,10.31,12.29-1.07,12.22-8.54,23.23-19.5,28.75-1.64.82-3.38,1.21-5.09,1.21Z"/>
    <path fill="#453100" d="M397.91,252.16c-.07,0-.14,0-.21,0-6.26-.06-11.29-5.19-11.22-11.45.06-5.82,4.5-10.57,10.15-11.16-.36-5.67,3.58-10.83,9.31-11.86,6.16-1.11,12.06,2.99,13.17,9.15,1.12,6.24-.65,12.86-4.75,17.71-4.05,4.78-10.18,7.62-16.44,7.62ZM396.79,230.85h0,0Z"/>
    <path fill="#453100" d="M402.2,272.74c-6.06,0-11.09-4.79-11.32-10.9-.24-6.26,4.63-11.53,10.89-11.77,2.27-.09,4.79-2.48,4.99-4.75.55-6.24,6.05-10.86,12.29-10.3,6.24.55,10.85,6.05,10.3,12.29-1.21,13.72-12.94,24.88-26.69,25.42-.15,0-.3,0-.45,0Z"/>
    <path fill="#453100" d="M373.09,270.68c-4.62,0-8.97-2.85-10.65-7.44-2.15-5.88.87-12.39,6.75-14.55,6.58-2.41,12.5-6.46,17.12-11.73,4.13-4.71,11.3-5.17,16-1.03,4.71,4.13,5.17,11.3,1.03,16-7.12,8.1-16.23,14.35-26.36,18.05-1.29.47-2.6.69-3.9.69Z"/>
    <path fill="#453100" d="M355.84,253.06c-4.66,0-9.03-2.89-10.68-7.54-2.1-5.9.97-12.39,6.87-14.49,2.61-.93,4.67-4.17,4.41-6.94-.59-6.23,3.99-11.77,10.22-12.36,6.24-.58,11.77,3.99,12.36,10.22,1.25,13.19-6.9,25.99-19.37,30.44-1.26.45-2.54.66-3.81.66Z"/>
    <path fill="#453100" d="M405.96,157.53c-4.41,0-8.61-2.59-10.44-6.9-2.45-5.76.23-12.42,6-14.87,3.37-1.43,5.95-5.28,6.01-8.94.1-6.26,5.26-11.24,11.52-11.16,6.26.1,11.26,5.26,11.16,11.52-.2,12.66-8.16,24.5-19.81,29.45-1.45.62-2.95.91-4.43.91Z"/>
    <path fill="#453100" d="M389.88,163.5c-5.01,0-9.59-3.34-10.95-8.41-1.62-6.05,1.97-12.27,8.02-13.89,3.34-.9,6.22-4.71,6.16-8.17-.11-6.26,4.88-11.43,11.14-11.53,6.28-.08,11.43,4.88,11.53,11.14.24,13.8-9.63,26.89-22.96,30.47-.98.26-1.97.39-2.94.39Z"/>
    <path fill="#453100" d="M375.1,170.96c-4.12,0-8.1-2.26-10.1-6.18-2.85-5.58-.65-12.41,4.93-15.26,2.78-1.42,4.76-4.97,4.51-8.08-.5-6.24,4.15-11.71,10.39-12.21,6.25-.5,11.71,4.15,12.21,10.39.99,12.35-5.75,24.45-16.79,30.1-1.65.85-3.42,1.25-5.16,1.25Z"/>
    <path fill="#453100" d="M472.19,153.38c-2.85,0-5.71-1.07-7.91-3.22-7.1-6.92-10.94-16.97-10.27-26.86.43-6.25,5.82-10.96,12.08-10.54,6.25.43,10.97,5.84,10.54,12.08-.22,3.29,1.11,6.77,3.47,9.08,4.48,4.37,4.58,11.55.21,16.04-2.22,2.28-5.17,3.42-8.12,3.42Z"/>
    <path fill="#453100" d="M504.41,171.43c-.2,0-.4,0-.6-.02-9.31-.49-18.16-5.26-23.68-12.76-3.71-5.04-2.63-12.14,2.41-15.85,5.04-3.71,12.14-2.63,15.85,2.41,1.49,2.03,4.08,3.42,6.6,3.56,6.25.33,11.06,5.66,10.73,11.92-.32,6.05-5.32,10.75-11.31,10.75Z"/>
    <path fill="#453100" d="M464.25,213.5c-.13,0-.27,0-.4,0-11.14-.39-21.71-7.47-26.3-17.62-2.58-5.71-.05-12.42,5.66-15.01,5.71-2.58,12.43-.05,15.01,5.66,1.07,2.36,3.83,4.21,6.42,4.3,6.26.22,11.16,5.47,10.94,11.73-.21,6.12-5.25,10.95-11.33,10.95Z"/>
    <path fill="#453100" d="M475.16,214.63c-9.1,0-18.04-4.69-22.92-12.58-3.3-5.33-1.65-12.31,3.68-15.61,5.33-3.29,12.31-1.65,15.61,3.68.81,1.32,3,2.15,4.49,1.72,6.01-1.74,12.3,1.73,14.04,7.75,1.74,6.02-1.73,12.3-7.75,14.04-2.35.68-4.75,1-7.15,1Z"/>
    <path fill="#453100" d="M568.27,289.86c-.48,0-.97-.03-1.46-.09-11.36-1.46-22.25-6.55-30.66-14.34-4.59-4.26-4.87-11.43-.61-16.03,4.26-4.59,11.43-4.87,16.03-.61,4.97,4.61,11.41,7.62,18.12,8.48,6.21.8,10.6,6.48,9.81,12.69-.73,5.72-5.61,9.9-11.23,9.9Z"/>
    <path fill="#453100" d="M594.18,273.5c-.42,0-.83-.02-1.26-.07-12.1-1.34-22.9-9.97-26.87-21.49-2.04-5.92,1.11-12.38,7.03-14.42,5.92-2.04,12.38,1.11,14.42,7.03,1.13,3.29,4.46,5.95,7.91,6.33,6.22.69,10.71,6.29,10.03,12.52-.64,5.8-5.55,10.1-11.26,10.1Z"/>
    <path fill="#453100" d="M602.95,272.79c-9.15,0-18.06-5.47-21.81-14.03-2.51-5.74.1-12.42,5.83-14.94,5.72-2.51,12.4.09,14.92,5.8.17.24.73.52,1.04.49,6.05-1.62,12.24,1.98,13.86,8.02,1.62,6.05-2,12.27-8.05,13.9-1.91.51-3.85.76-5.79.76Z"/>
    <path fill="#453100" d="M538.1,303.45c-11.18,0-22.1-5.02-29.35-13.55-4.06-4.77-3.49-11.93,1.28-15.99,4.77-4.06,11.92-3.49,15.99,1.28,3.02,3.54,7.76,5.68,12.43,5.56,6.3-.16,11.46,4.81,11.6,11.07.15,6.26-4.81,11.46-11.07,11.6-.29,0-.59.01-.88.01Z"/>
    <path fill="#453100" d="M509.9,313.92c-2.55,0-5.11-.86-7.23-2.61-8.13-6.74-11.86-17.74-9.52-28.03,1.39-6.11,7.47-9.93,13.57-8.54,6.11,1.39,9.93,7.47,8.54,13.57-.43,1.91.38,4.28,1.88,5.53,4.82,4,5.49,11.15,1.49,15.97-2.24,2.71-5.48,4.1-8.74,4.1Z"/>
    <path fill="#453100" d="M616.21,188.51c-11.76,0-23.51-4.27-32.43-11.97-4.74-4.09-5.26-11.25-1.17-15.99,4.09-4.74,11.25-5.26,15.99-1.17,5.7,4.92,13.56,7.25,21.02,6.22,6.2-.86,11.93,3.48,12.79,9.68.86,6.2-3.48,11.93-9.68,12.79-2.16.3-4.34.44-6.52.44Z"/>
    <path fill="#453100" d="M595.62,161.7c-2.51,0-5.04-.83-7.14-2.54-3.59-2.92-8.49-4.45-13.13-4.08-6.22.49-11.7-4.18-12.19-10.42-.49-6.24,4.18-11.7,10.42-12.19,10.43-.81,21.08,2.5,29.19,9.09,4.86,3.95,5.6,11.09,1.65,15.95-2.24,2.76-5.51,4.19-8.81,4.19Z"/>
    <path fill="#453100" d="M571.67,150.03c-1.2,0-2.41-.19-3.6-.59-6.25-2.09-12.97-2.52-19.44-1.24-6.14,1.22-12.11-2.77-13.33-8.92-1.22-6.14,2.77-12.11,8.92-13.33,10.33-2.05,21.07-1.36,31.06,1.98,5.94,1.99,9.14,8.42,7.15,14.35-1.59,4.74-6.01,7.74-10.75,7.74Z"/>
    <path fill="#453100" d="M508.9,202.18c-4.62,0-8.93-.8-12.9-2.4-9.19-3.71-15.66-11.66-16.89-20.75-.84-6.21,3.51-11.92,9.72-12.76,6.21-.84,11.92,3.51,12.76,9.72.09.69,1.18,2.07,2.91,2.77,2.3.93,5.5,1,9.25.19,6.12-1.3,12.15,2.6,13.45,8.73,1.3,6.13-2.6,12.15-8.73,13.45-3.31.71-6.51,1.06-9.57,1.06Z"/>
    <path fill="#453100" d="M522.63,187.39c-8.7,0-17.31-4.91-21.17-12.98-2.7-5.65-.32-12.42,5.33-15.12,5.6-2.68,12.31-.35,15.06,5.19.16.12.49.25.68.25,5.73-2.38,12.31.29,14.76,6,2.47,5.75-.19,12.42-5.94,14.9-2.8,1.2-5.77,1.77-8.72,1.77Z"/>
    <path fill="#aa7600" d="M448.55,274.47c-2.91,0-5.81-1.11-8.02-3.33-9.08-9.09-12.32-23.36-8.07-35.49,2.07-5.91,8.54-9.02,14.45-6.95,5.91,2.07,9.02,8.54,6.95,14.45-1.39,3.97-.25,9,2.71,11.97,4.43,4.43,4.42,11.61-.01,16.04-2.21,2.21-5.11,3.31-8.01,3.31Z"/>
    <path fill="#aa7600" d="M493.05,266.85c-12.55,0-24.13-8.22-28.25-20.11-2.05-5.92,1.08-12.38,7-14.43,5.92-2.05,12.38,1.08,14.43,7,.92,2.65,4.03,4.85,6.83,4.85.07,0,.15,0,.22,0,6.19,0,11.26,4.98,11.34,11.19.08,6.26-4.93,11.4-11.19,11.49-.12,0-.25,0-.37,0Z"/>
    <path fill="#aa7600" d="M616.06,162.23c-3.22,0-6.43-1.37-8.67-4.03-3.39-4.02-9.37-6.12-14.53-5.09-6.15,1.22-12.11-2.78-13.33-8.92-1.22-6.14,2.77-12.11,8.92-13.33,13.29-2.64,27.53,2.35,36.27,12.71,4.04,4.79,3.44,11.94-1.35,15.98-2.13,1.8-4.73,2.67-7.31,2.67Z"/>
    <path fill="#aa7600" d="M589.7,176.44c-1.18,0-2.38-.19-3.56-.58-8.66-2.86-16.44-8.48-21.91-15.8-3.75-5.02-2.71-12.12,2.31-15.87,5.02-3.75,12.12-2.71,15.87,2.31,2.71,3.64,6.57,6.42,10.85,7.84,5.95,1.97,9.17,8.38,7.21,14.33-1.58,4.76-6.01,7.78-10.76,7.78Z"/>
    <path fill="#aa7600" d="M628.07,270.39c-.34,0-.69-.02-1.03-.05-14.33-1.3-26.25-13.06-27.75-27.37-.65-6.23,3.87-11.81,10.1-12.46,6.25-.65,11.81,3.87,12.46,10.1.36,3.42,3.8,6.82,7.23,7.13,6.24.56,10.84,6.08,10.27,12.32-.53,5.89-5.48,10.32-11.28,10.32Z"/>
    <path fill="#aa7600" d="M515.86,210.38c-9.53,0-19.09-3.87-25.73-10.71-3.27-3.37-3.19-8.76.19-12.03,3.37-3.27,8.76-3.19,12.03.19,4.25,4.38,11.1,6.46,17.07,5.18,4.58-.99,9.12,1.93,10.1,6.52.99,4.59-1.93,9.12-6.52,10.1-2.34.5-4.74.75-7.14.75Z"/>
    <path fill="#aa7600" d="M405.22,190.6c-2.8,0-5.54-1.38-7.16-3.91-2.54-3.95-1.4-9.21,2.56-11.75,6.2-3.99,10.16-11.61,9.84-18.98-.2-4.69,3.44-8.66,8.13-8.86,4.68-.19,8.66,3.44,8.86,8.13.58,13.41-6.34,26.76-17.64,34.02-1.42.91-3.02,1.35-4.59,1.35Z"/>
    <path fill="#aa7600" d="M398.45,207.04c-.96,0-1.92-.16-2.84-.49-2.22-.79-4.02-2.46-4.96-4.62l-.3-.68c-1.87-4.31.1-9.32,4.4-11.19.73-.32,1.48-.53,2.24-.63,4-3.03,6.78-7.78,7.32-12.75.51-4.67,4.71-8.04,9.37-7.54,4.67.51,8.04,4.7,7.54,9.37-1.26,11.61-8.48,22.18-18.85,27.57-1.22.64-2.57.96-3.92.96Z"/>
    <path fill="#aa7600" d="M383.78,303.1c-3.66,0-6.99-2.37-8.11-5.98l-2.1-6.74c-1.4-4.48,1.11-9.25,5.59-10.65,1.7-.53,3.44-.5,5.01-.02.45-.69,1-1.32,1.66-1.87,2.11-1.77,4.88-2.37,7.44-1.76.17-.13.35-.26.54-.37,3.96-2.53,9.22-1.37,11.75,2.59,3.09,4.83,1.62,11.42-3.26,14.67-2.18,1.45-4.83,2.1-7.51,1.91-.75.46-1.55.83-2.4,1.09-.07.02-.14.04-.21.06-.6,3.47-3.31,6.29-6.91,6.93-.5.09-.99.13-1.48.13Z"/>
    <path fill="#aa7600" d="M456.38,321.21c-1.17,0-2.44-.13-3.77-.48-4.86-1.31-8.29-5.21-8.94-9.72-1.54-1.29-2.6-3-3.12-4.87-1.16-.82-2.12-1.94-2.76-3.29-1.49-3.14-.92-6.87,1.44-9.42l1.85-2c2.94-3.17,7.73-3.6,11.16-1.17l1.88-.12c3.86-.24,7.41,2.17,8.61,5.85.85,2.6.38,5.38-1.12,7.52,1.83-.05,4.02.17,6.25,1.17,4.29,1.91,6.22,6.94,4.3,11.23-1.78,4-6.28,5.95-10.35,4.64-.16.02-.39.06-.71.11l-.37.07c-1.15.21-2.64.47-4.35.47Z"/>
    <path fill="#aa7600" d="M514.91,129.63c-8.25,0-16.45-1.72-23.95-5.03-1.44-.63-3.33-1.99-4.65-3.01-2.57-1.99-5.11-4.25-5.5-8.04-.07-.73-.05-1.46.05-2.16-.05-2.5,1-5,3.08-6.72,7.89-6.54,16.77-11.65,26.38-15.2,7.41-2.74,11.87.03,13.87,1.92,3.2,2.98,3.6,6.88,3.78,8.55.6,5.39,1.21,10.85,1.81,16.32.16,1.41.61,5.26-2.04,8.79-2.02,2.69-5.08,4.2-9.1,4.46-1.24.08-2.49.12-3.73.12ZM487.45,120.76s0,0,0,0Z"/>
    <path fill="#aa7600" d="M381.7,132.72c-3.07,0-5.26-1.23-6.69-2.47-1.81-1.56-4.62-5.15-3.03-11.51l4.6-18.18c-1.05-3.76-.03-7.87,2.92-10.51,1.53-1.36,5.74-4.17,12.18-1.3l22.89,10.25c3.56,1.59,5.48,5.33,4.94,9,.81.86,1.46,1.92,1.86,3.12,1.5,4.45-.9,9.28-5.35,10.77l-29.85,10.06c-1.66.55-3.15.78-4.48.78Z"/>
    <path fill="#aa7600" d="M484.99,293.71c-.34,0-.69-.02-1.04-.05-22.96-2.09-34.92-25.28-38.37-38.66-1.56-6.06,2.09-12.25,8.15-13.81,6.05-1.56,12.22,2.07,13.8,8.11.1.36,5.88,20.62,18.47,21.77,6.24.57,10.83,6.08,10.27,12.32-.54,5.89-5.48,10.31-11.28,10.31Z"/>
  </g>
  <g>
    <path fill="var(--hm-stroke, #000000)" d="M643.62,161.94c-1.88,0-3.77-.62-5.34-1.89-37.08-30-104.74-28.16-105.41-28.13-2.4.09-4.68-.84-6.34-2.54-1.67-1.7-2.55-4.01-2.43-6.39,1.03-20.34-2.96-26.88-4.25-28.43-7.39.09-27.18,12.11-41.43,23.67-2.41,1.96-5.7,2.44-8.57,1.27-7.5-3.07-30.94-1.86-45.2-.03-2.38.31-4.78-.41-6.6-1.96-20.67-17.62-31.17-21.58-35.14-22.46-1.49,5.2-1.49,18.29.16,30.13.65,4.65-2.59,8.94-7.24,9.59-4.65.65-8.94-2.59-9.59-7.24-.05-.36-1.25-9.03-1.41-18.58-.25-15.72,2.35-24.66,8.42-29,.04-.03.08-.06.12-.09,2.17-1.49,7.21-3.53,16.63-.49,9.54,3.08,21.71,10.74,36.21,22.78,9.64-1.08,31.42-2.97,45.02.07,11.67-9.07,37.54-27.33,52.99-24.26,4.09.81,16.55,5.87,17.02,36.96,21.01.49,73.92,4.55,107.72,31.9,3.65,2.95,4.21,8.3,1.26,11.95-1.68,2.08-4.14,3.15-6.61,3.16Z"/>
    <path fill="var(--hm-stroke, #000000)" d="M348.2,170.68c-.8,0-1.58-.05-2.33-.16-4.64-.69-7.85-5.02-7.15-9.66.69-4.64,5.02-7.84,9.66-7.15,3.1.2,11.71-4.66,13.07-7.44,1.77-4.35,6.73-6.41,11.07-4.64,4.35,1.77,6.43,6.75,4.65,11.1-3.67,9-18.56,17.96-28.98,17.96Z"/>
    <path fill="var(--hm-stroke, #000000)" d="M338.08,211.04c-2.89,0-5.71-1.47-7.3-4.13-2.41-4.03-1.1-9.25,2.92-11.66,5.41-3.24,13.65-13.23,17.57-18.76,2.71-3.83,8.02-4.74,11.85-2.02,3.83,2.71,4.74,8.01,2.03,11.84-1.25,1.76-12.47,17.39-22.71,23.52-1.37.82-2.87,1.21-4.36,1.21Z"/>
    <path fill="var(--hm-stroke, #000000)" d="M348.15,262.58c-3.07,0-6.03-1.66-7.54-4.57-3.97-7.6-3.25-18.07,2.19-31.99,3.55-9.1,7.93-16.47,8.12-16.78,2.41-4.03,7.62-5.35,11.65-2.94,4.03,2.4,5.35,7.62,2.95,11.65h0c-8.36,14.06-11.89,28.26-9.84,32.21,2.17,4.16.56,9.3-3.61,11.47-1.26.65-2.6.96-3.92.96Z"/>
    <path fill="var(--hm-stroke, #000000)" d="M551.76,170.61c-.9,0-1.82-.14-2.72-.45-15.89-5.36-28.3-19.17-28.83-19.76-3.12-3.51-2.8-8.88.7-12,3.5-3.12,8.87-2.81,11.99.69.15.17,10.04,11.07,21.56,14.96,4.45,1.5,6.84,6.32,5.34,10.77-1.2,3.55-4.51,5.79-8.05,5.79Z"/>
    <path fill="var(--hm-stroke, #000000)" d="M554.91,202.74c-1.18,0-2.39-.25-3.53-.77-12.32-5.64-23.92-20.19-25.2-21.84-2.89-3.7-2.23-9.04,1.46-11.93,3.7-2.89,9.04-2.23,11.93,1.46,2.79,3.56,11.63,13.53,18.88,16.85,4.27,1.95,6.14,7,4.19,11.27-1.43,3.12-4.51,4.96-7.73,4.96Z"/>
    <path fill="var(--hm-stroke, #000000)" d="M554.91,245.03c-3.52,0-6.82-2.21-8.03-5.73-2.73-7.91-12.64-18.4-16.22-21.77-3.42-3.21-3.59-8.59-.38-12.01,3.21-3.42,8.58-3.59,12.01-.39,1.63,1.53,16.07,15.32,20.66,28.61,1.53,4.44-.82,9.28-5.26,10.81-.92.32-1.86.47-2.78.47Z"/>
    <path fill="var(--hm-stroke, #000000)" d="M526.58,267.52c-.4,0-.81-.03-1.21-.09-4.65-.66-7.88-4.97-7.21-9.62.62-4.37.17-12.79-.06-15.66-.37-4.68,3.12-8.77,7.8-9.15,4.67-.37,8.77,3.12,9.15,7.79.1,1.25.95,12.4-.06,19.42-.61,4.24-4.24,7.3-8.4,7.3Z"/>
    <path fill="var(--hm-stroke, #000000)" d="M459.39,301.27c-.77,0-1.56-.11-2.34-.33-10.37-2.96-13.39-9.56-14.84-12.73-1.95-4.27-.08-9.31,4.19-11.27,4.27-1.96,9.31-.08,11.27,4.19.93,2.04,1.22,2.65,4.06,3.47,4.51,1.29,7.13,5.99,5.84,10.51-1.07,3.73-4.47,6.17-8.17,6.17Z"/>
    <path fill="var(--hm-stroke, #000000)" d="M438.62,299.59c-.77,0-1.56-.11-2.34-.33-7.76-2.22-12.86-6.77-15.16-13.54-1.51-4.44.87-9.27,5.31-10.78s9.27.87,10.78,5.31c.28.83.6,1.77,3.74,2.66,4.51,1.29,7.13,5.99,5.84,10.51-1.07,3.73-4.47,6.17-8.17,6.17Z"/>
    <path fill="var(--hm-stroke, #000000)" d="M416.11,299.13c-.87,0-1.76-.14-2.64-.42-11.97-3.9-16.91-18.66-17.78-21.58-1.34-4.5,1.22-9.23,5.72-10.57,4.49-1.34,9.21,1.21,10.56,5.69,1.3,4.24,4.47,9.54,6.77,10.29,4.46,1.46,6.9,6.25,5.45,10.72-1.17,3.59-4.5,5.87-8.08,5.87Z"/>
    <path fill="var(--hm-stroke, #000000)" d="M363.48,289.84c-3.13,0-6.15-1.74-7.63-4.74-8.75-17.74-4.39-35.53-4.2-36.28,1.15-4.55,5.78-7.3,10.33-6.15,4.54,1.15,7.29,5.75,6.16,10.29-.07.29-2.91,12.73,2.95,24.62,2.08,4.21.35,9.31-3.86,11.38-1.21.6-2.49.88-3.75.88Z"/>
    <path fill="var(--hm-stroke, #000000)" d="M401.17,327.33c-7.3,0-14.57-2.49-21.38-7.45-8.33-6.06-13.18-13.69-13.71-14.54-2.47-3.99-1.24-9.23,2.75-11.7,3.98-2.46,9.21-1.24,11.69,2.73.11.17,3.78,5.89,9.6,10,6.74,4.77,13.01,5.25,19.74,1.51,6.13-3.41,8.49-6.43,8.64-7.98.13-1.31-1.33-3.03-2.02-3.61l.11.09,10.55-13.33c.94.75,9.17,7.58,8.3,18.2-.67,8.25-6.5,15.48-17.33,21.49-5.52,3.07-11.24,4.59-16.94,4.59Z"/>
    <path fill="var(--hm-stroke, #000000)" d="M441.65,333.11c-2.71,0-5.45-.31-8.19-1.04-10.48-2.79-14.26-8.88-15.59-13.5-3.83-13.27,8.95-27.9,11.55-30.69,3.19-3.44,8.57-3.64,12.01-.44,3.44,3.2,3.64,8.57.44,12.01-4.54,4.93-8.35,12.08-7.67,14.41.05.17.86,1.04,3.63,1.78,4.84,1.29,11.49-.11,18.73-3.94,7.17-3.79,13-9,15.59-12.49,2.8-3.76,8.13-4.54,11.89-1.74,3.76,2.8,4.54,8.13,1.74,11.89-4.63,6.21-12.78,12.86-21.27,17.36-5.95,3.15-14.18,6.38-22.86,6.38Z"/>
    <path fill="var(--hm-stroke, #000000)" d="M470.31,331.32c-3.18,0-6.34-.29-9.38-.93-4.6-.96-7.55-5.46-6.59-10.05.96-4.6,5.46-7.55,10.05-6.59,13.4,2.79,29.33-4.67,33.53-9.66,3.02-3.59,8.38-4.05,11.98-1.03s4.05,8.39,1.03,11.98c-7.3,8.67-24.35,16.28-40.61,16.28Z"/>
    <path fill="var(--hm-stroke, #000000)" d="M490.43,332.08c-4.69,0-8.5-3.81-8.5-8.5s3.81-8.5,8.5-8.5c15.92,0,32.67-6.22,40.99-12.36,3.78-2.79,9.1-1.98,11.89,1.79s1.98,9.1-1.79,11.89c-10.24,7.55-30.59,15.68-51.09,15.68Z"/>
    <path fill="var(--hm-stroke, #000000)" d="M675.45,219.84c-3.87,0-7.37-2.66-8.28-6.6-6.27-27.28-37.54-43.38-37.86-43.54-4.18-2.12-5.87-7.22-3.76-11.41,2.11-4.19,7.2-5.88,11.39-3.78,1.58.79,38.71,19.76,46.8,54.92,1.05,4.58-1.8,9.14-6.38,10.19-.64.15-1.28.22-1.91.22Z"/>
    <path fill="var(--hm-stroke, #000000)" d="M678.65,262.58c-4.69,0-8.5-3.81-8.5-8.5,0-17.87-15.65-37.14-15.81-37.34-2.98-3.62-2.46-8.98,1.16-11.96,3.62-2.98,8.97-2.47,11.95,1.14.8.97,19.7,24.12,19.7,48.15,0,4.69-3.81,8.5-8.5,8.5Z"/>
    <path fill="var(--hm-stroke, #000000)" d="M651.01,308.4c-2.28,0-4.55-.91-6.23-2.71-3.2-3.44-3-8.82.44-12.01,12.44-11.56,12.3-28.21,12.21-40.37,0-1.06-.02-2.08-.02-3.05,0-4.69,3.81-8.5,8.5-8.5s8.5,3.81,8.5,8.5c0,.93,0,1.9.02,2.92.11,13.57.29,36.29-17.63,52.96-1.64,1.52-3.71,2.27-5.79,2.27Z"/>
    <path fill="var(--hm-stroke, #000000)" d="M610.38,322.05c-3.9,0-7.42-2.7-8.29-6.67-1.01-4.58,1.88-9.12,6.47-10.13,17.78-3.93,26.02-18.47,27.49-21.35,2.14-4.18,7.26-5.84,11.44-3.7,4.18,2.14,5.84,7.26,3.7,11.44-2.08,4.07-13.73,24.64-38.96,30.21-.62.14-1.23.2-1.84.2Z"/>
    <path fill="var(--hm-stroke, #000000)" d="M574.43,327.36h-52.41c-4.69,0-8.5-3.81-8.5-8.5s3.81-8.5,8.5-8.5h51.92c10.12-1.19,17.06-2.94,20.63-5.2,2.23-1.41,2.97-2.85,4.58-6.26.44-.94.9-1.9,1.4-2.88,2.15-4.18,7.27-5.82,11.45-3.67,4.17,2.15,5.82,7.27,3.67,11.45-.41.8-.78,1.59-1.14,2.35-4.87,10.32-10.53,17.88-39.13,21.16-.32.04-.64.06-.97.06Z"/>
    <g>
      <path fill="var(--hm-stroke, #000000)" d="M678.03,244.6c-4.22,0-7.89-3.15-8.42-7.45-.58-4.64,2.7-8.88,7.33-9.48.18-.03,4.32-.65,8.07-2.87,4-2.37,5.68-5.38,5.44-9.73-.25-4.69,3.34-8.69,8.03-8.95,4.67-.26,8.69,3.34,8.95,8.03.6,10.95-4.5,20.05-14.36,25.64-6.62,3.75-13.23,4.66-13.96,4.75-.36.04-.71.07-1.07.07Z"/>
      <path fill="var(--hm-stroke, #000000)" d="M706.19,230.62c-.96,0-1.94-.16-2.89-.51-4.41-1.6-6.7-6.47-5.1-10.88,3.45-9.59,6.87-26.21,3.68-33.13-1.97-4.26-.11-9.31,4.16-11.28,4.26-1.97,9.31-.11,11.28,4.16,3.3,7.16,3.71,17.24,1.22,29.96-1.72,8.78-4.24,15.78-4.34,16.07-1.25,3.46-4.52,5.61-7.99,5.61Z"/>
      <path fill="var(--hm-stroke, #000000)" d="M728.41,261.9c-.53,0-1.06-.05-1.6-.15-4.61-.88-7.64-5.33-6.76-9.94,3.29-17.28,26.64-33.81,29.3-35.64,3.86-2.66,9.16-1.69,11.82,2.17,2.66,3.86,1.69,9.15-2.17,11.82-8.38,5.8-20.82,17.33-22.25,24.82-.78,4.07-4.34,6.91-8.34,6.91Z"/>
      <path fill="var(--hm-stroke, #000000)" d="M750.09,230.32c-3.55,0-6.86-2.24-8.05-5.78-2.52-7.47-1.85-17.54,1.99-29.92,2.65-8.54,5.9-15.24,6.04-15.52,2.06-4.22,7.15-5.97,11.37-3.91,4.22,2.06,5.97,7.15,3.91,11.37-4.46,9.17-9.63,25.32-7.19,32.54,1.5,4.45-.89,9.27-5.34,10.77-.9.3-1.82.45-2.72.45Z"/>
      <path fill="var(--hm-stroke, #000000)" d="M719.11,194.42c-4.57,0-8.34-3.62-8.49-8.22-.24-6.84-2.5-19.46-7.53-24.21-3.41-3.22-3.57-8.6-.34-12.02,3.22-3.41,8.6-3.57,12.02-.34,11.73,11.08,12.77,33.5,12.85,36.02.15,4.69-3.53,8.62-8.23,8.77-.09,0-.18,0-.27,0Z"/>
      <path fill="var(--hm-stroke, #000000)" d="M745.9,186.12c-3.74,0-7.16-2.48-8.19-6.26-4.26-15.56,6.52-35.26,7.76-37.46,2.31-4.08,7.5-5.52,11.59-3.21,4.08,2.31,5.52,7.49,3.21,11.58-3.35,5.97-7.99,17.92-6.16,24.59,1.24,4.53-1.42,9.2-5.95,10.44-.75.21-1.51.3-2.25.3Z"/>
      <path fill="var(--hm-stroke, #000000)" d="M719.1,158.01c-3.87,0-7.37-2.66-8.27-6.59-.85-3.62-4.04-11.8-8.44-14-4.2-2.1-5.9-7.21-3.8-11.4,2.1-4.2,7.2-5.9,11.4-3.8,12.75,6.37,16.97,23.48,17.41,25.4,1.04,4.58-1.82,9.13-6.4,10.18-.64.15-1.27.21-1.9.21Z"/>
      <path fill="var(--hm-stroke, #000000)" d="M725.2,138.32c-3.18,0-6.24-1.8-7.69-4.86-1.5-3.14-6.57-12.28-12.03-16.83-3.61-3-4.09-8.36-1.09-11.97,3.01-3.61,8.37-4.09,11.97-1.09,9.33,7.78,15.81,21.12,16.51,22.62,2.01,4.24.19,9.31-4.05,11.32-1.17.56-2.41.82-3.63.82Z"/>
      <path fill="var(--hm-stroke, #000000)" d="M740.81,156.4c-3.34,0-6.51-1.98-7.86-5.27-4.62-11.23-4.1-26.06-4.03-27.71.21-4.69,4.18-8.33,8.87-8.11,4.69.21,8.32,4.18,8.11,8.86h0c-.15,3.47.06,13.92,2.77,20.5,1.79,4.34-.29,9.31-4.63,11.09-1.06.44-2.15.64-3.23.64Z"/>
      <path fill="var(--hm-stroke, #000000)" d="M694.51,283.58c-1.71,0-3.43-.51-4.92-1.58-4.54-3.23-13.92-.82-17.75.85-4.29,1.87-9.3-.07-11.19-4.35-1.89-4.28.02-9.28,4.3-11.19,2.1-.94,20.88-8.86,34.5.84,3.83,2.72,4.72,8.03,2,11.85-1.66,2.33-4.28,3.57-6.93,3.57Z"/>
      <path fill="var(--hm-stroke, #000000)" d="M696.63,272.91c-3.53,0-6.83-2.22-8.04-5.74-1.52-4.44.83-9.26,5.26-10.79.26-.09,6.47-2.21,14.13-3.38,11.42-1.74,20.39-.53,26.65,3.58,3.92,2.58,5.02,7.85,2.44,11.77-2.58,3.92-7.85,5.01-11.77,2.44-2.9-1.91-13.15-2.7-25.92,1.67-.91.31-1.84.46-2.75.46Z"/>
    </g>
  </g>
  <g>
    <circle fill="var(--hm-stroke, #000000)" cx="404.82" cy="173.79" r="9.61"/>
    <circle fill="var(--hm-stroke, #000000)" cx="461.17" cy="173.79" r="9.61"/>
  </g></g></svg>
